<svg xmlns="http://www.w3.org/2000/svg" xmlns:xlink="http://www.w3.org/1999/xlink" width="208" zoomAndPan="magnify" viewBox="0 0 156 62.249996" height="83" preserveAspectRatio="xMidYMid meet" version="1.2"><defs><clipPath id="411bb86272"><path d="M 110.429688 19.027344 L 154 19.027344 L 154 42 L 110.429688 42 Z M 110.429688 19.027344 "/></clipPath></defs><g id="279d8bb863"><g style="fill:#303144;fill-opacity:1;"><g transform="translate(31.203573, 40.915372)"><path style="stroke:none" d="M 7.171875 0 L 7.171875 -16.5625 C 7.171875 -17.457031 6.71875 -17.90625 5.8125 -17.90625 L 0.53125 -17.90625 L 0.53125 -22.53125 L 9.203125 -22.53125 C 10.597656 -22.53125 11.578125 -22.238281 12.140625 -21.65625 C 12.703125 -21.082031 12.984375 -20.109375 12.984375 -18.734375 L 12.984375 0 Z M 7.171875 0 "/></g></g><g style="fill:#303144;fill-opacity:1;"><g transform="translate(46.260856, 40.915372)"><path style="stroke:none" d="M 3.34375 0 L 3.34375 -17.078125 C 3.34375 -17.429688 3.285156 -17.65625 3.171875 -17.75 C 3.054688 -17.851562 2.828125 -17.90625 2.484375 -17.90625 L 1.125 -17.90625 L 1.125 -22.53125 L 6.640625 -22.53125 C 7.566406 -22.53125 8.21875 -22.34375 8.59375 -21.96875 C 8.96875 -21.59375 9.15625 -20.953125 9.15625 -20.046875 L 9.15625 0 Z M 3.34375 0 "/></g></g><g style="fill:#303144;fill-opacity:1;"><g transform="translate(57.488112, 40.915372)"><path style="stroke:none" d="M 5.859375 -22.53125 L 13.296875 -22.53125 L 13.296875 -17.90625 L 11.984375 -17.90625 C 11.273438 -17.90625 10.773438 -17.710938 10.484375 -17.328125 C 10.203125 -16.941406 10.097656 -16.269531 10.171875 -15.3125 L 11.421875 0 L 5.59375 0 L 4.390625 -15.015625 C 4.296875 -16.316406 4.597656 -17.28125 5.296875 -17.90625 L 5.0625 -17.90625 C 4.0625 -17.90625 3.140625 -18.09375 2.296875 -18.46875 C 1.460938 -18.84375 0.796875 -19.457031 0.296875 -20.3125 L 3.34375 -23.8125 C 3.695312 -23.332031 4.035156 -23 4.359375 -22.8125 C 4.679688 -22.625 5.179688 -22.53125 5.859375 -22.53125 Z M 5.859375 -22.53125 "/></g></g><g style="fill:#303144;fill-opacity:1;"><g transform="translate(71.794411, 40.915372)"><path style="stroke:none" d="M 20.984375 -22.53125 L 20.984375 -17.90625 L 18.84375 -17.90625 C 19.125 -17.4375 19.265625 -16.535156 19.265625 -15.203125 L 19.265625 0 L 13.4375 0 L 13.4375 -16.21875 C 13.4375 -16.945312 13.378906 -17.410156 13.265625 -17.609375 C 13.160156 -17.804688 12.929688 -17.90625 12.578125 -17.90625 L 9.71875 -17.90625 C 9.394531 -17.90625 9.175781 -17.804688 9.0625 -17.609375 C 8.957031 -17.410156 8.90625 -16.945312 8.90625 -16.21875 L 8.90625 0 L 3.078125 0 L 3.078125 -15.203125 C 3.078125 -16.535156 3.210938 -17.4375 3.484375 -17.90625 L 1.359375 -17.90625 L 1.359375 -22.53125 Z M 20.984375 -22.53125 "/></g></g><g clip-rule="nonzero" clip-path="url(#411bb86272)"><path style=" stroke:none;fill-rule:nonzero;fill:#303144;fill-opacity:1;" d="M 110.558594 19.027344 L 110.558594 24.785156 L 117.972656 30.523438 L 110.558594 36.238281 L 110.558594 42 L 125.410156 30.5 Z M 124.675781 19.027344 L 124.675781 24.785156 L 132.089844 30.523438 L 124.675781 36.238281 L 124.675781 42 L 139.527344 30.5 Z M 138.796875 19.027344 L 138.796875 24.785156 L 146.210938 30.523438 L 138.796875 36.238281 L 138.796875 42 L 153.648438 30.5 Z M 138.796875 19.027344 "/></g></g></svg>