<svg xmlns="http://www.w3.org/2000/svg" xmlns:xlink="http://www.w3.org/1999/xlink" width="1920" zoomAndPan="magnify" viewBox="0 0 1440 809.999993" height="1080" preserveAspectRatio="xMidYMid meet" version="1.0"><defs><filter x="0%" y="0%" width="100%" height="100%" id="98cf3e439a"><feColorMatrix values="0 0 0 0 1 0 0 0 0 1 0 0 0 0 1 0 0 0 1 0" color-interpolation-filters="sRGB"/></filter><mask id="604c1ff26e"><g filter="url(#98cf3e439a)"><rect x="-144" width="1728" fill="#000000" y="-80.999999" height="971.999992" fill-opacity="0.05"/></g></mask><clipPath id="f1183b16d6"><path d="M 0 0 L 389.089844 0 L 389.089844 349.160156 L 0 349.160156 Z M 0 0 " clip-rule="nonzero"/></clipPath><clipPath id="698ccf9a0a"><rect x="0" width="390" y="0" height="350"/></clipPath></defs><g mask="url(#604c1ff26e)"><g transform="matrix(1, 0, 0, 1, 0, 0.000000000000039746)"><g clip-path="url(#698ccf9a0a)"><g clip-path="url(#f1183b16d6)"><path fill="#396c84" d="M 386.546875 -28.015625 C 386.917969 -28.015625 387.273438 -28.085938 387.617188 -28.226562 C 387.960938 -28.371094 388.265625 -28.570312 388.527344 -28.835938 C 388.789062 -29.097656 388.992188 -29.402344 389.136719 -29.746094 C 389.277344 -30.085938 389.347656 -30.445312 389.347656 -30.816406 C 389.347656 -31.1875 389.277344 -31.546875 389.136719 -31.890625 C 388.992188 -32.234375 388.789062 -32.535156 388.527344 -32.796875 C 388.265625 -33.0625 387.960938 -33.265625 387.617188 -33.40625 C 387.273438 -33.546875 386.917969 -33.621094 386.546875 -33.621094 L 294.996094 -33.621094 L 294.996094 -122.382812 L 386.546875 -122.382812 C 386.917969 -122.382812 387.273438 -122.453125 387.617188 -122.59375 C 387.960938 -122.738281 388.265625 -122.941406 388.527344 -123.203125 C 388.789062 -123.464844 388.992188 -123.769531 389.136719 -124.113281 C 389.277344 -124.457031 389.347656 -124.8125 389.347656 -125.183594 C 389.347656 -125.554688 389.277344 -125.914062 389.136719 -126.257812 C 388.992188 -126.601562 388.789062 -126.902344 388.527344 -127.167969 C 388.265625 -127.429688 387.960938 -127.632812 387.617188 -127.773438 C 387.273438 -127.917969 386.917969 -127.988281 386.546875 -127.988281 L 294.996094 -127.988281 L 294.996094 -219.539062 C 294.996094 -219.910156 294.921875 -220.269531 294.78125 -220.613281 C 294.640625 -220.953125 294.4375 -221.257812 294.171875 -221.519531 C 293.910156 -221.785156 293.609375 -221.984375 293.265625 -222.128906 C 292.921875 -222.269531 292.5625 -222.339844 292.191406 -222.339844 C 291.820312 -222.339844 291.460938 -222.269531 291.117188 -222.128906 C 290.777344 -221.984375 290.472656 -221.785156 290.210938 -221.519531 C 289.945312 -221.257812 289.746094 -220.953125 289.601562 -220.613281 C 289.460938 -220.269531 289.390625 -219.910156 289.390625 -219.539062 L 289.390625 -127.988281 L 200.625 -127.988281 L 200.625 -219.539062 C 200.625 -219.910156 200.554688 -220.269531 200.414062 -220.613281 C 200.269531 -220.953125 200.066406 -221.257812 199.804688 -221.519531 C 199.542969 -221.785156 199.238281 -221.984375 198.894531 -222.128906 C 198.550781 -222.269531 198.195312 -222.339844 197.824219 -222.339844 C 197.453125 -222.339844 197.09375 -222.269531 196.75 -222.128906 C 196.40625 -221.984375 196.105469 -221.785156 195.839844 -221.519531 C 195.578125 -221.257812 195.375 -220.953125 195.234375 -220.613281 C 195.09375 -220.269531 195.019531 -219.910156 195.019531 -219.539062 L 195.019531 -127.988281 L 106.273438 -127.988281 L 106.273438 -219.539062 C 106.273438 -219.910156 106.199219 -220.269531 106.058594 -220.613281 C 105.917969 -220.953125 105.714844 -221.257812 105.453125 -221.519531 C 105.1875 -221.785156 104.886719 -221.984375 104.542969 -222.128906 C 104.199219 -222.269531 103.839844 -222.339844 103.46875 -222.339844 C 103.097656 -222.339844 102.738281 -222.269531 102.398438 -222.128906 C 102.054688 -221.984375 101.75 -221.785156 101.488281 -221.519531 C 101.226562 -221.257812 101.023438 -220.953125 100.878906 -220.613281 C 100.738281 -220.269531 100.667969 -219.910156 100.667969 -219.539062 L 100.667969 -127.988281 L 11.917969 -127.988281 L 11.917969 -219.539062 C 11.917969 -219.910156 11.847656 -220.269531 11.703125 -220.613281 C 11.5625 -220.953125 11.359375 -221.257812 11.097656 -221.519531 C 10.835938 -221.785156 10.53125 -221.984375 10.1875 -222.128906 C 9.84375 -222.269531 9.488281 -222.339844 9.117188 -222.339844 C 8.742188 -222.339844 8.386719 -222.269531 8.042969 -222.128906 C 7.699219 -221.984375 7.394531 -221.785156 7.132812 -221.519531 C 6.871094 -221.257812 6.667969 -220.953125 6.527344 -220.613281 C 6.382812 -220.269531 6.3125 -219.910156 6.3125 -219.539062 L 6.3125 -127.988281 L -82.449219 -127.988281 L -82.449219 -219.539062 C -82.449219 -219.910156 -82.519531 -220.269531 -82.664062 -220.613281 C -82.804688 -220.953125 -83.007812 -221.257812 -83.269531 -221.519531 C -83.535156 -221.785156 -83.835938 -221.984375 -84.179688 -222.128906 C -84.523438 -222.269531 -84.882812 -222.339844 -85.253906 -222.339844 C -85.625 -222.339844 -85.980469 -222.269531 -86.324219 -222.128906 C -86.667969 -221.984375 -86.972656 -221.785156 -87.234375 -221.519531 C -87.496094 -221.257812 -87.699219 -220.953125 -87.84375 -220.613281 C -87.984375 -220.269531 -88.054688 -219.910156 -88.054688 -219.539062 L -88.054688 -127.988281 L -179.605469 -127.988281 C -179.976562 -127.988281 -180.335938 -127.917969 -180.679688 -127.773438 C -181.023438 -127.632812 -181.324219 -127.429688 -181.589844 -127.167969 C -181.851562 -126.902344 -182.054688 -126.601562 -182.195312 -126.257812 C -182.339844 -125.914062 -182.410156 -125.554688 -182.410156 -125.183594 C -182.410156 -124.8125 -182.339844 -124.457031 -182.195312 -124.113281 C -182.054688 -123.769531 -181.851562 -123.464844 -181.589844 -123.203125 C -181.324219 -122.941406 -181.023438 -122.738281 -180.679688 -122.59375 C -180.335938 -122.453125 -179.976562 -122.382812 -179.605469 -122.382812 L -88.054688 -122.382812 L -88.054688 -33.621094 L -179.605469 -33.621094 C -179.976562 -33.621094 -180.335938 -33.546875 -180.679688 -33.40625 C -181.023438 -33.265625 -181.324219 -33.0625 -181.589844 -32.796875 C -181.851562 -32.535156 -182.054688 -32.234375 -182.195312 -31.890625 C -182.339844 -31.546875 -182.410156 -31.1875 -182.410156 -30.816406 C -182.410156 -30.445312 -182.339844 -30.085938 -182.195312 -29.746094 C -182.054688 -29.402344 -181.851562 -29.097656 -181.589844 -28.835938 C -181.324219 -28.570312 -181.023438 -28.371094 -180.679688 -28.226562 C -180.335938 -28.085938 -179.976562 -28.015625 -179.605469 -28.015625 L -88.054688 -28.015625 L -88.054688 60.734375 L -179.605469 60.734375 C -179.976562 60.734375 -180.335938 60.804688 -180.679688 60.949219 C -181.023438 61.089844 -181.324219 61.292969 -181.589844 61.554688 C -181.851562 61.816406 -182.054688 62.121094 -182.195312 62.464844 C -182.339844 62.808594 -182.410156 63.164062 -182.410156 63.539062 C -182.410156 63.910156 -182.339844 64.265625 -182.195312 64.609375 C -182.054688 64.953125 -181.851562 65.257812 -181.589844 65.519531 C -181.324219 65.78125 -181.023438 65.984375 -180.679688 66.125 C -180.335938 66.269531 -179.976562 66.339844 -179.605469 66.339844 L -88.054688 66.339844 L -88.054688 155.089844 L -179.605469 155.089844 C -179.976562 155.089844 -180.335938 155.160156 -180.679688 155.300781 C -181.023438 155.445312 -181.324219 155.648438 -181.589844 155.910156 C -181.851562 156.171875 -182.054688 156.476562 -182.195312 156.820312 C -182.339844 157.160156 -182.410156 157.519531 -182.410156 157.890625 C -182.410156 158.261719 -182.339844 158.621094 -182.195312 158.964844 C -182.054688 159.308594 -181.851562 159.609375 -181.589844 159.875 C -181.324219 160.136719 -181.023438 160.339844 -180.679688 160.480469 C -180.335938 160.621094 -179.976562 160.695312 -179.605469 160.695312 L -88.054688 160.695312 L -88.054688 249.457031 L -179.605469 249.457031 C -179.976562 249.457031 -180.335938 249.527344 -180.679688 249.671875 C -181.023438 249.8125 -181.324219 250.015625 -181.589844 250.277344 C -181.851562 250.539062 -182.054688 250.84375 -182.195312 251.1875 C -182.339844 251.53125 -182.410156 251.886719 -182.410156 252.257812 C -182.410156 252.632812 -182.339844 252.988281 -182.195312 253.332031 C -182.054688 253.675781 -181.851562 253.976562 -181.589844 254.242188 C -181.324219 254.503906 -181.023438 254.707031 -180.679688 254.847656 C -180.335938 254.992188 -179.976562 255.0625 -179.605469 255.0625 L -88.054688 255.0625 L -88.054688 346.613281 C -88.054688 346.984375 -87.984375 347.34375 -87.84375 347.6875 C -87.699219 348.027344 -87.496094 348.332031 -87.234375 348.59375 C -86.972656 348.859375 -86.667969 349.058594 -86.324219 349.203125 C -85.980469 349.34375 -85.625 349.417969 -85.253906 349.417969 C -84.882812 349.417969 -84.523438 349.34375 -84.179688 349.203125 C -83.835938 349.058594 -83.535156 348.859375 -83.269531 348.59375 C -83.007812 348.332031 -82.804688 348.027344 -82.664062 347.6875 C -82.519531 347.34375 -82.449219 346.984375 -82.449219 346.613281 L -82.449219 255.0625 L 6.3125 255.0625 L 6.3125 346.613281 C 6.3125 346.984375 6.382812 347.34375 6.527344 347.6875 C 6.667969 348.027344 6.871094 348.332031 7.132812 348.59375 C 7.394531 348.859375 7.699219 349.058594 8.042969 349.203125 C 8.386719 349.34375 8.742188 349.417969 9.117188 349.417969 C 9.488281 349.417969 9.84375 349.34375 10.1875 349.203125 C 10.53125 349.058594 10.835938 348.859375 11.097656 348.59375 C 11.359375 348.332031 11.5625 348.027344 11.703125 347.6875 C 11.847656 347.34375 11.917969 346.984375 11.917969 346.613281 L 11.917969 255.0625 L 100.667969 255.0625 L 100.667969 346.613281 C 100.667969 346.984375 100.738281 347.34375 100.878906 347.6875 C 101.023438 348.027344 101.226562 348.332031 101.488281 348.59375 C 101.75 348.859375 102.054688 349.058594 102.398438 349.203125 C 102.738281 349.34375 103.097656 349.417969 103.46875 349.417969 C 103.839844 349.417969 104.199219 349.34375 104.542969 349.203125 C 104.886719 349.058594 105.1875 348.859375 105.453125 348.59375 C 105.714844 348.332031 105.917969 348.027344 106.058594 347.6875 C 106.199219 347.34375 106.273438 346.984375 106.273438 346.613281 L 106.273438 255.0625 L 195.019531 255.0625 L 195.019531 346.613281 C 195.019531 346.984375 195.09375 347.34375 195.234375 347.6875 C 195.375 348.027344 195.578125 348.332031 195.839844 348.59375 C 196.105469 348.859375 196.40625 349.058594 196.75 349.203125 C 197.09375 349.34375 197.453125 349.417969 197.824219 349.417969 C 198.195312 349.417969 198.550781 349.34375 198.894531 349.203125 C 199.238281 349.058594 199.542969 348.859375 199.804688 348.59375 C 200.066406 348.332031 200.269531 348.027344 200.414062 347.6875 C 200.554688 347.34375 200.625 346.984375 200.625 346.613281 L 200.625 255.0625 L 289.390625 255.0625 L 289.390625 346.613281 C 289.390625 346.984375 289.460938 347.34375 289.601562 347.6875 C 289.746094 348.027344 289.945312 348.332031 290.210938 348.59375 C 290.472656 348.859375 290.777344 349.058594 291.117188 349.203125 C 291.460938 349.34375 291.820312 349.417969 292.191406 349.417969 C 292.5625 349.417969 292.921875 349.34375 293.265625 349.203125 C 293.609375 349.058594 293.910156 348.859375 294.171875 348.59375 C 294.4375 348.332031 294.640625 348.027344 294.78125 347.6875 C 294.921875 347.34375 294.996094 346.984375 294.996094 346.613281 L 294.996094 255.0625 L 386.546875 255.0625 C 386.917969 255.0625 387.273438 254.992188 387.617188 254.847656 C 387.960938 254.707031 388.265625 254.503906 388.527344 254.242188 C 388.789062 253.976562 388.992188 253.675781 389.136719 253.332031 C 389.277344 252.988281 389.347656 252.632812 389.347656 252.257812 C 389.347656 251.886719 389.277344 251.53125 389.136719 251.1875 C 388.992188 250.84375 388.789062 250.539062 388.527344 250.277344 C 388.265625 250.015625 387.960938 249.8125 387.617188 249.671875 C 387.273438 249.527344 386.917969 249.457031 386.546875 249.457031 L 294.996094 249.457031 L 294.996094 160.695312 L 386.546875 160.695312 C 386.917969 160.695312 387.273438 160.621094 387.617188 160.480469 C 387.960938 160.339844 388.265625 160.136719 388.527344 159.871094 C 388.789062 159.609375 388.992188 159.308594 389.136719 158.964844 C 389.277344 158.621094 389.347656 158.261719 389.347656 157.890625 C 389.347656 157.519531 389.277344 157.160156 389.136719 156.820312 C 388.992188 156.476562 388.789062 156.171875 388.527344 155.910156 C 388.265625 155.648438 387.960938 155.445312 387.617188 155.300781 C 387.273438 155.160156 386.917969 155.089844 386.546875 155.089844 L 294.996094 155.089844 L 294.996094 66.339844 L 386.546875 66.339844 C 386.917969 66.339844 387.273438 66.269531 387.617188 66.125 C 387.960938 65.984375 388.265625 65.78125 388.527344 65.519531 C 388.789062 65.257812 388.992188 64.953125 389.136719 64.609375 C 389.277344 64.265625 389.347656 63.910156 389.347656 63.539062 C 389.347656 63.164062 389.277344 62.808594 389.136719 62.464844 C 388.992188 62.121094 388.789062 61.816406 388.527344 61.554688 C 388.265625 61.292969 387.960938 61.089844 387.617188 60.949219 C 387.273438 60.804688 386.917969 60.734375 386.546875 60.734375 L 294.996094 60.734375 L 294.996094 -28.015625 Z M 289.390625 -122.382812 L 289.390625 -33.621094 L 200.625 -33.621094 L 200.625 -122.382812 Z M 195.019531 -122.382812 L 195.019531 -33.621094 L 106.273438 -33.621094 L 106.273438 -122.382812 Z M 100.667969 66.339844 L 100.667969 155.089844 L 11.917969 155.089844 L 11.917969 66.339844 Z M 11.917969 60.734375 L 11.917969 -28.015625 L 100.667969 -28.015625 L 100.667969 60.734375 Z M 106.273438 66.339844 L 195.019531 66.339844 L 195.019531 155.089844 L 106.273438 155.089844 Z M 106.273438 60.734375 L 106.273438 -28.015625 L 195.019531 -28.015625 L 195.019531 60.734375 Z M 100.667969 -122.382812 L 100.667969 -33.621094 L 11.917969 -33.621094 L 11.917969 -122.382812 Z M -82.449219 -122.382812 L 6.3125 -122.382812 L 6.3125 -33.621094 L -82.449219 -33.621094 Z M -82.449219 -28.015625 L 6.3125 -28.015625 L 6.3125 60.734375 L -82.449219 60.734375 Z M -82.449219 66.339844 L 6.3125 66.339844 L 6.3125 155.089844 L -82.449219 155.089844 Z M -82.449219 249.457031 L -82.449219 160.695312 L 6.3125 160.695312 L 6.3125 249.457031 Z M 11.917969 249.457031 L 11.917969 160.695312 L 100.667969 160.695312 L 100.667969 249.457031 Z M 106.273438 249.457031 L 106.273438 160.695312 L 195.019531 160.695312 L 195.019531 249.457031 Z M 289.390625 249.457031 L 200.625 249.457031 L 200.625 160.695312 L 289.390625 160.695312 Z M 289.390625 155.089844 L 200.625 155.089844 L 200.625 66.339844 L 289.390625 66.339844 Z M 289.390625 60.734375 L 200.625 60.734375 L 200.625 -28.015625 L 289.390625 -28.015625 Z M 289.390625 60.734375 " fill-opacity="1" fill-rule="nonzero"/></g></g></g></g></svg>