<svg xmlns="http://www.w3.org/2000/svg" xmlns:xlink="http://www.w3.org/1999/xlink" width="256" zoomAndPan="magnify" viewBox="0 0 192 101.249998" height="135" preserveAspectRatio="xMidYMid meet" version="1.2"><defs><clipPath id="c1c6f5df71"><path d="M 110.578125 35.074219 L 115.890625 35.074219 L 115.890625 47.652344 L 110.578125 47.652344 Z M 110.578125 35.074219 "/></clipPath><clipPath id="0ce3125713"><path d="M 113.234375 35.074219 C 113.9375 35.074219 114.613281 35.355469 115.113281 35.851562 C 115.613281 36.351562 115.890625 37.027344 115.890625 37.730469 L 115.890625 44.976562 C 115.890625 45.679688 115.613281 46.355469 115.113281 46.855469 C 114.613281 47.355469 113.9375 47.632812 113.234375 47.632812 C 112.53125 47.632812 111.855469 47.355469 111.355469 46.855469 C 110.859375 46.355469 110.578125 45.679688 110.578125 44.976562 L 110.578125 37.730469 C 110.578125 37.027344 110.859375 36.351562 111.355469 35.851562 C 111.855469 35.355469 112.53125 35.074219 113.234375 35.074219 Z M 113.234375 35.074219 "/></clipPath></defs><g id="c59b5ff541"><g style="fill:#303144;fill-opacity:1;"><g transform="translate(60.259456, 23.82878)"><path style="stroke:none" d="M 33.59375 44.546875 L 9.171875 19.78125 L 9.171875 2.625 L 33.71875 27.640625 L 58.96875 3.09375 L 58.96875 19.78125 Z M 33.59375 44.546875 "/></g></g><g clip-rule="nonzero" clip-path="url(#c1c6f5df71)"><g clip-rule="nonzero" clip-path="url(#0ce3125713)"><path style=" stroke:none;fill-rule:nonzero;fill:#303144;fill-opacity:1;" d="M 110.578125 35.074219 L 115.890625 35.074219 L 115.890625 47.632812 L 110.578125 47.632812 Z M 110.578125 35.074219 "/></g></g></g></svg>