<svg xmlns="http://www.w3.org/2000/svg" xmlns:xlink="http://www.w3.org/1999/xlink" width="64" zoomAndPan="magnify" viewBox="0 0 48 48" height="64" preserveAspectRatio="xMidYMid meet" version="1.2"><defs><clipPath id="92f1b1e907"><path d="M 0.488281 0 L 47.507812 0 L 47.507812 47 L 0.488281 47 Z M 0.488281 0 "/></clipPath><clipPath id="fc43cc8ab7"><path d="M 43.046875 2.226562 L 46.71875 2.226562 L 46.71875 6.589844 L 43.046875 6.589844 Z M 43.046875 2.226562 "/></clipPath></defs><g id="81ab88a796"><g clip-rule="nonzero" clip-path="url(#92f1b1e907)"><path style=" stroke:none;fill-rule:nonzero;fill:#303144;fill-opacity:1;" d="M 2.804688 -0.0195312 C 2.5 -0.0195312 2.207031 0.0429688 1.925781 0.171875 C 1.644531 0.296875 1.40625 0.476562 1.203125 0.710938 C 1 0.941406 0.855469 1.207031 0.769531 1.5 C 0.683594 1.792969 0.660156 2.09375 0.703125 2.398438 L 0.703125 12.75 C 0.699219 13.035156 0.75 13.308594 0.855469 13.574219 C 0.960938 13.835938 1.113281 14.070312 1.3125 14.273438 C 1.511719 14.476562 1.746094 14.632812 2.007812 14.742188 C 2.269531 14.851562 2.542969 14.90625 2.828125 14.90625 C 3.113281 14.90625 3.386719 14.851562 3.648438 14.742188 C 3.910156 14.632812 4.140625 14.476562 4.339844 14.273438 C 4.539062 14.070312 4.691406 13.835938 4.800781 13.574219 C 4.90625 13.308594 4.957031 13.035156 4.953125 12.75 L 4.953125 7.253906 L 14.074219 16.378906 C 14.273438 16.582031 14.503906 16.742188 14.765625 16.855469 C 15.027344 16.96875 15.300781 17.027344 15.585938 17.03125 C 15.871094 17.035156 16.148438 16.980469 16.410156 16.875 C 16.675781 16.765625 16.910156 16.609375 17.109375 16.410156 C 17.3125 16.207031 17.46875 15.972656 17.574219 15.710938 C 17.683594 15.445312 17.734375 15.167969 17.734375 14.882812 C 17.730469 14.597656 17.671875 14.324219 17.558594 14.0625 C 17.445312 13.800781 17.285156 13.570312 17.078125 13.371094 L 7.957031 4.25 L 13.453125 4.25 C 13.738281 4.253906 14.011719 4.203125 14.273438 4.097656 C 14.539062 3.992188 14.773438 3.839844 14.972656 3.636719 C 15.175781 3.4375 15.332031 3.207031 15.441406 2.945312 C 15.554688 2.683594 15.609375 2.410156 15.609375 2.125 C 15.609375 1.839844 15.554688 1.566406 15.441406 1.304688 C 15.332031 1.042969 15.175781 0.8125 14.972656 0.613281 C 14.773438 0.410156 14.539062 0.257812 14.273438 0.152344 C 14.011719 0.046875 13.738281 -0.00390625 13.453125 0 L 3.078125 0 C 2.988281 -0.0117188 2.898438 -0.0195312 2.804688 -0.0195312 Z M 45.285156 -0.0195312 C 45.207031 -0.0195312 45.128906 -0.0117188 45.050781 0 L 34.703125 0 C 34.417969 -0.00390625 34.144531 0.046875 33.878906 0.152344 C 33.617188 0.257812 33.382812 0.410156 33.179688 0.613281 C 32.976562 0.8125 32.820312 1.042969 32.710938 1.304688 C 32.601562 1.566406 32.546875 1.839844 32.546875 2.125 C 32.546875 2.410156 32.601562 2.683594 32.710938 2.945312 C 32.820312 3.207031 32.976562 3.4375 33.179688 3.636719 C 33.382812 3.839844 33.617188 3.992188 33.878906 4.097656 C 34.144531 4.203125 34.417969 4.253906 34.703125 4.25 L 40.199219 4.25 L 31.074219 13.371094 C 30.871094 13.570312 30.710938 13.800781 30.597656 14.0625 C 30.484375 14.324219 30.425781 14.597656 30.421875 14.882812 C 30.417969 15.167969 30.472656 15.445312 30.578125 15.710938 C 30.6875 15.972656 30.84375 16.207031 31.042969 16.410156 C 31.246094 16.609375 31.480469 16.765625 31.742188 16.875 C 32.007812 16.980469 32.28125 17.035156 32.570312 17.03125 C 32.855469 17.027344 33.128906 16.96875 33.390625 16.855469 C 33.652344 16.742188 33.882812 16.582031 34.082031 16.378906 L 43.203125 7.253906 L 43.203125 12.75 C 43.199219 13.035156 43.25 13.308594 43.355469 13.574219 C 43.460938 13.835938 43.613281 14.070312 43.8125 14.273438 C 44.015625 14.476562 44.246094 14.632812 44.507812 14.742188 C 44.769531 14.851562 45.042969 14.90625 45.328125 14.90625 C 45.613281 14.90625 45.886719 14.851562 46.148438 14.742188 C 46.410156 14.632812 46.640625 14.476562 46.839844 14.273438 C 47.039062 14.070312 47.195312 13.835938 47.300781 13.574219 C 47.40625 13.308594 47.457031 13.035156 47.453125 12.75 L 47.453125 2.394531 C 47.496094 2.085938 47.472656 1.78125 47.378906 1.480469 C 47.289062 1.183594 47.136719 0.917969 46.929688 0.683594 C 46.722656 0.453125 46.472656 0.273438 46.1875 0.152344 C 45.898438 0.0273438 45.597656 -0.03125 45.285156 -0.0195312 Z M 15.535156 29.730469 C 14.960938 29.746094 14.476562 29.960938 14.074219 30.371094 L 4.953125 39.496094 L 4.953125 34 C 4.957031 33.714844 4.902344 33.4375 4.796875 33.171875 C 4.6875 32.90625 4.53125 32.671875 4.328125 32.46875 C 4.125 32.265625 3.890625 32.109375 3.625 32 C 3.359375 31.894531 3.082031 31.84375 2.792969 31.847656 C 2.511719 31.851562 2.242188 31.910156 1.984375 32.019531 C 1.726562 32.132812 1.5 32.289062 1.300781 32.492188 C 1.105469 32.691406 0.957031 32.925781 0.851562 33.1875 C 0.75 33.449219 0.699219 33.71875 0.703125 34 L 0.703125 44.300781 C 0.675781 44.46875 0.667969 44.636719 0.679688 44.804688 C 0.691406 44.976562 0.722656 45.140625 0.773438 45.300781 C 0.824219 45.464844 0.894531 45.617188 0.984375 45.761719 C 1.070312 45.90625 1.175781 46.039062 1.296875 46.15625 C 1.414062 46.277344 1.546875 46.382812 1.691406 46.46875 C 1.835938 46.558594 1.988281 46.628906 2.152344 46.679688 C 2.3125 46.730469 2.476562 46.761719 2.648438 46.773438 C 2.816406 46.785156 2.984375 46.777344 3.152344 46.75 L 13.453125 46.75 C 13.738281 46.753906 14.011719 46.703125 14.273438 46.597656 C 14.539062 46.492188 14.773438 46.339844 14.972656 46.140625 C 15.175781 45.9375 15.332031 45.707031 15.441406 45.445312 C 15.554688 45.183594 15.609375 44.910156 15.609375 44.625 C 15.609375 44.339844 15.554688 44.066406 15.441406 43.804688 C 15.332031 43.542969 15.175781 43.3125 14.972656 43.113281 C 14.773438 42.914062 14.539062 42.757812 14.273438 42.652344 C 14.011719 42.546875 13.738281 42.496094 13.453125 42.5 L 7.957031 42.5 L 17.078125 33.378906 C 17.394531 33.074219 17.59375 32.703125 17.679688 32.273438 C 17.769531 31.847656 17.726562 31.429688 17.554688 31.027344 C 17.386719 30.621094 17.113281 30.300781 16.746094 30.066406 C 16.378906 29.828125 15.972656 29.714844 15.535156 29.730469 Z M 32.558594 29.730469 C 32.125 29.730469 31.730469 29.851562 31.371094 30.09375 C 31.011719 30.332031 30.75 30.65625 30.589844 31.054688 C 30.425781 31.457031 30.390625 31.867188 30.476562 32.289062 C 30.566406 32.714844 30.765625 33.078125 31.074219 33.378906 L 40.199219 42.5 L 34.703125 42.5 C 34.417969 42.496094 34.144531 42.546875 33.878906 42.652344 C 33.617188 42.757812 33.382812 42.914062 33.179688 43.113281 C 32.976562 43.3125 32.820312 43.542969 32.710938 43.804688 C 32.601562 44.066406 32.546875 44.339844 32.546875 44.625 C 32.546875 44.910156 32.601562 45.183594 32.710938 45.445312 C 32.820312 45.707031 32.976562 45.9375 33.179688 46.140625 C 33.382812 46.339844 33.617188 46.492188 33.878906 46.597656 C 34.144531 46.703125 34.417969 46.753906 34.703125 46.75 L 45.003906 46.75 C 45.171875 46.777344 45.339844 46.785156 45.507812 46.773438 C 45.675781 46.761719 45.84375 46.730469 46.003906 46.679688 C 46.164062 46.628906 46.320312 46.558594 46.464844 46.46875 C 46.609375 46.382812 46.738281 46.277344 46.859375 46.15625 C 46.980469 46.039062 47.082031 45.90625 47.171875 45.761719 C 47.261719 45.617188 47.328125 45.464844 47.382812 45.300781 C 47.433594 45.140625 47.464844 44.976562 47.476562 44.804688 C 47.488281 44.636719 47.480469 44.46875 47.453125 44.300781 L 47.453125 34 C 47.457031 33.714844 47.40625 33.4375 47.296875 33.171875 C 47.1875 32.90625 47.03125 32.671875 46.828125 32.46875 C 46.625 32.265625 46.390625 32.109375 46.125 32 C 45.859375 31.894531 45.582031 31.84375 45.292969 31.847656 C 45.011719 31.851562 44.742188 31.910156 44.484375 32.019531 C 44.226562 32.132812 44 32.289062 43.804688 32.492188 C 43.605469 32.691406 43.457031 32.925781 43.351562 33.1875 C 43.25 33.449219 43.199219 33.71875 43.203125 34 L 43.203125 39.496094 L 34.082031 30.371094 C 33.664062 29.945312 33.15625 29.730469 32.558594 29.730469 Z M 32.558594 29.730469 "/></g><g clip-rule="nonzero" clip-path="url(#fc43cc8ab7)"><path style=" stroke:none;fill-rule:nonzero;fill:#303144;fill-opacity:1;" d="M 43.046875 2.226562 L 46.71875 2.226562 L 46.71875 6.589844 L 43.046875 6.589844 Z M 43.046875 2.226562 "/></g></g></svg>