<svg xmlns="http://www.w3.org/2000/svg" xmlns:xlink="http://www.w3.org/1999/xlink" width="1865" zoomAndPan="magnify" viewBox="0 0 1398.75 217.499994" height="290" preserveAspectRatio="xMidYMid meet" version="1.0"><defs><g/><clipPath id="ff917e975c"><path d="M 550.453125 27.535156 L 1294.789062 27.535156 L 1294.789062 179.289062 L 550.453125 179.289062 Z M 550.453125 27.535156 " clip-rule="nonzero"/></clipPath><clipPath id="0e8d880d23"><path d="M 38.277344 27.535156 L 782.617188 27.535156 L 782.617188 179.289062 L 38.277344 179.289062 Z M 38.277344 27.535156 " clip-rule="nonzero"/></clipPath></defs><g clip-path="url(#ff917e975c)"><path fill="#e0f5ff" d="M 1294.554688 56.941406 L 1277.808594 162.367188 C 1276.367188 171.417969 1268.519531 178.042969 1259.355469 177.945312 L 1201.636719 177.304688 L 1127.949219 176.507812 L 906.929688 174.089844 L 833.265625 173.292969 L 767.996094 172.496094 L 694.40625 171.683594 L 552.96875 179.289062 C 551.492188 179.355469 550.304688 178.070312 550.46875 176.59375 L 551.148438 170.320312 L 553.113281 152.707031 C 553.148438 152.367188 553.261719 152.042969 553.425781 151.75 L 557.941406 144.027344 C 558.300781 143.394531 558.363281 142.632812 558.117188 141.949219 L 555.390625 134.574219 C 555.257812 134.214844 555.210938 133.84375 555.257812 133.46875 L 556.199219 124.972656 L 558.214844 106.820312 L 559.226562 97.738281 L 560.230469 88.675781 L 562.246094 70.539062 L 563.253906 61.457031 L 564.214844 52.914062 C 564.242188 52.570312 564.355469 52.230469 564.539062 51.9375 L 570.761719 41.40625 C 571.328125 40.464844 571.183594 39.246094 570.402344 38.46875 C 569.917969 37.964844 569.707031 37.363281 569.707031 36.777344 C 569.707031 35.507812 570.695312 34.292969 572.171875 34.308594 L 576.496094 35.136719 L 802.0625 27.535156 L 861.761719 28.441406 L 949.90625 29.386719 L 1027.070312 30.246094 L 1109.722656 31.140625 L 1192.359375 32.03125 L 1277.082031 35.582031 C 1288.117188 36.046875 1296.285156 46.03125 1294.554688 56.941406 " fill-opacity="1" fill-rule="nonzero"/></g><g clip-path="url(#0e8d880d23)"><path fill="#e0f5ff" d="M 782.378906 56.941406 L 765.636719 162.367188 C 764.195312 171.417969 756.34375 178.042969 747.183594 177.945312 L 689.464844 177.304688 L 615.777344 176.507812 L 394.757812 174.089844 L 321.089844 173.292969 L 255.820312 172.496094 L 182.234375 171.683594 L 40.796875 179.289062 C 39.320312 179.355469 38.132812 178.070312 38.292969 176.59375 L 38.976562 170.320312 L 40.941406 152.707031 C 40.976562 152.367188 41.089844 152.042969 41.25 151.75 L 45.769531 144.027344 C 46.125 143.394531 46.191406 142.632812 45.945312 141.949219 L 43.21875 134.574219 C 43.085938 134.214844 43.035156 133.84375 43.085938 133.46875 L 44.027344 124.972656 L 46.042969 106.820312 L 47.050781 97.738281 L 48.058594 88.675781 L 50.074219 70.539062 L 51.078125 61.457031 L 52.039062 52.914062 C 52.070312 52.570312 52.183594 52.230469 52.363281 51.9375 L 58.585938 41.40625 C 59.15625 40.464844 59.007812 39.246094 58.230469 38.46875 C 57.742188 37.964844 57.53125 37.363281 57.53125 36.777344 C 57.53125 35.507812 58.523438 34.292969 60 34.308594 L 64.320312 35.136719 L 289.890625 27.535156 L 349.589844 28.441406 L 437.734375 29.386719 L 514.894531 30.246094 L 597.546875 31.140625 L 680.183594 32.03125 L 764.90625 35.582031 C 775.945312 36.046875 784.113281 46.03125 782.378906 56.941406 " fill-opacity="1" fill-rule="nonzero"/></g><g fill="#396c84" fill-opacity="1"><g transform="translate(295.821411, 145.961597)"><g><path d="M 25.34375 0 L 25.34375 -58.515625 C 25.34375 -61.703125 23.75 -63.296875 20.5625 -63.296875 L 1.859375 -63.296875 L 1.859375 -79.609375 L 32.515625 -79.609375 C 37.460938 -79.609375 40.929688 -78.59375 42.921875 -76.5625 C 44.910156 -74.53125 45.90625 -71.082031 45.90625 -66.21875 L 45.90625 0 Z M 25.34375 0 "/></g></g></g><g fill="#396c84" fill-opacity="1"><g transform="translate(349.025865, 145.961597)"><g><path d="M 2.390625 0 L 2.390625 -16.328125 L 22.828125 -16.328125 C 24.410156 -16.328125 25.488281 -16.585938 26.0625 -17.109375 C 26.644531 -17.640625 26.9375 -18.660156 26.9375 -20.171875 L 26.9375 -59.3125 C 26.9375 -60.90625 26.644531 -61.96875 26.0625 -62.5 C 25.488281 -63.03125 24.410156 -63.296875 22.828125 -63.296875 L 3.84375 -63.296875 L 3.84375 -79.609375 L 34.890625 -79.609375 C 39.492188 -79.609375 42.742188 -78.65625 44.640625 -76.75 C 46.546875 -74.851562 47.5 -71.601562 47.5 -67 L 47.5 -12.46875 C 47.5 -7.957031 46.546875 -4.75 44.640625 -2.84375 C 42.742188 -0.945312 39.492188 0 34.890625 0 Z M 2.390625 0 "/></g></g></g><g fill="#396c84" fill-opacity="1"><g transform="translate(403.159081, 145.961597)"><g><path d="M 59.96875 -79.609375 L 79.875 -79.609375 L 76.03125 -28.265625 C 75.320312 -18.085938 72.6875 -10.832031 68.125 -6.5 C 63.570312 -2.164062 56.429688 0 46.703125 0 L 20.171875 0 C 16.722656 0 14.222656 -0.882812 12.671875 -2.65625 C 11.117188 -4.425781 10.125 -6.898438 9.6875 -10.078125 L 7.4375 -27.0625 C 6.726562 -31.394531 7.921875 -34.710938 11.015625 -37.015625 L 4.515625 -79.609375 L 24.546875 -79.609375 L 29.984375 -43.65625 L 30.125 -43.65625 C 31.363281 -44.09375 32.132812 -44.578125 32.4375 -45.109375 C 32.75 -45.640625 32.90625 -46.613281 32.90625 -48.03125 L 32.90625 -79.609375 L 52.671875 -79.609375 L 52.671875 -44.046875 C 52.671875 -40.160156 52.050781 -37.351562 50.8125 -35.625 C 49.582031 -33.90625 47.59375 -32.554688 44.84375 -31.578125 L 30.515625 -26.671875 C 29.015625 -26.046875 28.109375 -25.488281 27.796875 -25 C 27.484375 -24.519531 27.414062 -23.570312 27.59375 -22.15625 L 28.125 -18.703125 C 28.300781 -17.554688 28.722656 -16.828125 29.390625 -16.515625 C 30.054688 -16.210938 31.050781 -16.0625 32.375 -16.0625 L 41.265625 -16.0625 C 44.984375 -16.0625 47.878906 -16.390625 49.953125 -17.046875 C 52.035156 -17.710938 53.539062 -19.019531 54.46875 -20.96875 C 55.394531 -22.914062 55.992188 -25.742188 56.265625 -29.453125 Z M 59.96875 -79.609375 "/></g></g></g><g fill="#396c84" fill-opacity="1"><g transform="translate(487.675884, 145.961597)"><g><path d="M 41.65625 0 L 41.65625 -59.3125 C 41.65625 -60.90625 41.367188 -61.96875 40.796875 -62.5 C 40.222656 -63.03125 39.140625 -63.296875 37.546875 -63.296875 L 6.90625 -63.296875 L 6.90625 -79.609375 L 50.15625 -79.609375 C 54.582031 -79.609375 57.703125 -78.566406 59.515625 -76.484375 C 61.328125 -74.410156 62.234375 -70.851562 62.234375 -65.8125 L 62.234375 0 Z M 13.671875 0 C 9.160156 0 6.90625 -2.300781 6.90625 -6.90625 L 6.90625 -49.625 L 27.46875 -49.625 L 27.46875 -18.84375 C 27.46875 -17.164062 28.128906 -16.328125 29.453125 -16.328125 L 31.1875 -16.328125 L 31.1875 0 Z M 13.671875 0 "/></g></g></g><g fill="#396c84" fill-opacity="1"><g transform="translate(557.199907, 145.961597)"><g/></g></g><g fill="#396c84" fill-opacity="1"><g transform="translate(584.399196, 145.961597)"><g><path d="M 59.96875 -79.609375 L 79.875 -79.609375 L 76.03125 -28.265625 C 75.320312 -18.085938 72.6875 -10.832031 68.125 -6.5 C 63.570312 -2.164062 56.429688 0 46.703125 0 L 20.171875 0 C 16.722656 0 14.222656 -0.882812 12.671875 -2.65625 C 11.117188 -4.425781 10.125 -6.898438 9.6875 -10.078125 L 7.4375 -27.0625 C 6.726562 -31.394531 7.921875 -34.710938 11.015625 -37.015625 L 4.515625 -79.609375 L 24.546875 -79.609375 L 29.984375 -43.65625 L 30.125 -43.65625 C 31.363281 -44.09375 32.132812 -44.578125 32.4375 -45.109375 C 32.75 -45.640625 32.90625 -46.613281 32.90625 -48.03125 L 32.90625 -79.609375 L 52.671875 -79.609375 L 52.671875 -44.046875 C 52.671875 -40.160156 52.050781 -37.351562 50.8125 -35.625 C 49.582031 -33.90625 47.59375 -32.554688 44.84375 -31.578125 L 30.515625 -26.671875 C 29.015625 -26.046875 28.109375 -25.488281 27.796875 -25 C 27.484375 -24.519531 27.414062 -23.570312 27.59375 -22.15625 L 28.125 -18.703125 C 28.300781 -17.554688 28.722656 -16.828125 29.390625 -16.515625 C 30.054688 -16.210938 31.050781 -16.0625 32.375 -16.0625 L 41.265625 -16.0625 C 44.984375 -16.0625 47.878906 -16.390625 49.953125 -17.046875 C 52.035156 -17.710938 53.539062 -19.019531 54.46875 -20.96875 C 55.394531 -22.914062 55.992188 -25.742188 56.265625 -29.453125 Z M 59.96875 -79.609375 "/></g></g></g><g fill="#396c84" fill-opacity="1"><g transform="translate(668.916012, 145.961597)"><g><path d="M 11.8125 0 L 11.8125 -60.375 C 11.8125 -61.613281 11.609375 -62.410156 11.203125 -62.765625 C 10.804688 -63.117188 9.988281 -63.296875 8.75 -63.296875 L 3.984375 -63.296875 L 3.984375 -79.609375 L 23.484375 -79.609375 C 26.753906 -79.609375 29.050781 -78.941406 30.375 -77.609375 C 31.707031 -76.285156 32.375 -74.035156 32.375 -70.859375 L 32.375 0 Z M 11.8125 0 "/></g></g></g><g fill="#396c84" fill-opacity="1"><g transform="translate(708.587125, 145.961597)"><g><path d="M 21.234375 0 C 16.097656 0 12.644531 -1.613281 10.875 -4.84375 C 9.113281 -8.070312 9.203125 -12.691406 11.140625 -18.703125 L 24.15625 -59.046875 C 25.03125 -61.878906 24.054688 -63.296875 21.234375 -63.296875 L 5.703125 -63.296875 C 4.285156 -63.296875 3.289062 -63.582031 2.71875 -64.15625 C 2.144531 -64.726562 1.859375 -65.765625 1.859375 -67.265625 L 1.859375 -90.234375 L 21.234375 -90.234375 L 21.234375 -79.609375 L 35.421875 -79.609375 C 40.460938 -79.609375 43.976562 -77.945312 45.96875 -74.625 C 47.96875 -71.3125 48.082031 -66.914062 46.3125 -61.4375 L 32.25 -19.765625 C 31.894531 -18.796875 31.828125 -17.976562 32.046875 -17.3125 C 32.265625 -16.65625 32.945312 -16.328125 34.09375 -16.328125 L 39.9375 -16.328125 L 39.9375 0 Z M 21.234375 0 "/></g></g></g><g fill="#396c84" fill-opacity="1"><g transform="translate(759.801403, 145.961597)"><g><path d="M 52.28125 -79.609375 C 57.226562 -79.609375 60.742188 -78.566406 62.828125 -76.484375 C 64.910156 -74.410156 65.953125 -70.851562 65.953125 -65.8125 L 65.953125 0 L 45.375 0 L 45.375 -58.78125 C 45.375 -60.550781 45.0625 -61.832031 44.4375 -62.625 C 43.820312 -63.425781 42.675781 -63.828125 41 -63.828125 L 37.421875 -63.828125 C 34.410156 -63.828125 32.328125 -62.894531 31.171875 -61.03125 C 30.023438 -59.175781 29.984375 -55.285156 31.046875 -49.359375 L 35.828125 -21.5 C 37.148438 -14.238281 36.75 -8.835938 34.625 -5.296875 C 32.507812 -1.765625 28.222656 0 21.765625 0 L 4.109375 0 L 4.109375 -16.328125 L 11.9375 -16.328125 C 13.175781 -16.328125 14.128906 -16.675781 14.796875 -17.375 C 15.460938 -18.082031 15.660156 -19.410156 15.390625 -21.359375 L 11.015625 -46.703125 C 10.128906 -51.660156 9.992188 -55.398438 10.609375 -57.921875 C 11.234375 -60.441406 12.03125 -62.234375 13 -63.296875 L 4.375 -63.296875 L 4.375 -79.609375 Z M 52.28125 -79.609375 "/></g></g></g><g fill="#396c84" fill-opacity="1"><g transform="translate(833.173148, 145.961597)"><g/></g></g><g fill="#396c84" fill-opacity="1"><g transform="translate(860.37246, 145.961597)"><g><path d="M 52.28125 -79.609375 C 57.226562 -79.609375 60.742188 -78.566406 62.828125 -76.484375 C 64.910156 -74.410156 65.953125 -70.851562 65.953125 -65.8125 L 65.953125 0 L 45.375 0 L 45.375 -58.78125 C 45.375 -60.550781 45.0625 -61.832031 44.4375 -62.625 C 43.820312 -63.425781 42.675781 -63.828125 41 -63.828125 L 37.421875 -63.828125 C 34.410156 -63.828125 32.328125 -62.894531 31.171875 -61.03125 C 30.023438 -59.175781 29.984375 -55.285156 31.046875 -49.359375 L 35.828125 -21.5 C 37.148438 -14.238281 36.75 -8.835938 34.625 -5.296875 C 32.507812 -1.765625 28.222656 0 21.765625 0 L 4.109375 0 L 4.109375 -16.328125 L 11.9375 -16.328125 C 13.175781 -16.328125 14.128906 -16.675781 14.796875 -17.375 C 15.460938 -18.082031 15.660156 -19.410156 15.390625 -21.359375 L 11.015625 -46.703125 C 10.128906 -51.660156 9.992188 -55.398438 10.609375 -57.921875 C 11.234375 -60.441406 12.03125 -62.234375 13 -63.296875 L 4.375 -63.296875 L 4.375 -79.609375 Z M 52.28125 -79.609375 "/></g></g></g><g fill="#396c84" fill-opacity="1"><g transform="translate(933.744159, 145.961597)"><g><path d="M 0.390625 0 L 0.390625 -16.328125 L 11.40625 -16.328125 C 13.269531 -16.328125 14.507812 -16.632812 15.125 -17.25 C 15.75 -17.863281 16.0625 -19.144531 16.0625 -21.09375 L 16.0625 -59.3125 C 16.0625 -60.90625 15.796875 -61.96875 15.265625 -62.5 C 14.734375 -63.03125 13.710938 -63.296875 12.203125 -63.296875 L 7.5625 -63.296875 L 7.5625 -79.609375 L 24.421875 -79.609375 C 28.835938 -79.609375 31.972656 -78.613281 33.828125 -76.625 C 35.691406 -74.632812 36.625 -71.296875 36.625 -66.609375 L 36.625 -13.265625 C 36.625 -8.398438 35.671875 -4.972656 33.765625 -2.984375 C 31.867188 -0.992188 28.664062 0 24.15625 0 Z M 0.390625 0 "/></g></g></g><g fill="#396c84" fill-opacity="1"><g transform="translate(976.997688, 145.961597)"><g><path d="M 50.8125 -16.328125 L 54.796875 -16.328125 L 54.796875 0 L 2.390625 0 L 2.390625 -16.328125 L 28.265625 -16.328125 C 27.992188 -16.847656 27.769531 -17.484375 27.59375 -18.234375 C 27.414062 -18.992188 27.328125 -19.816406 27.328125 -20.703125 L 27.328125 -59.3125 C 27.328125 -60.90625 27.0625 -61.96875 26.53125 -62.5 C 26 -63.03125 24.941406 -63.296875 23.359375 -63.296875 L 3.84375 -63.296875 L 3.84375 -79.609375 L 35.15625 -79.609375 C 39.84375 -79.609375 43.140625 -78.566406 45.046875 -76.484375 C 46.953125 -74.410156 47.90625 -70.851562 47.90625 -65.8125 L 47.90625 -19.640625 C 47.90625 -17.429688 48.875 -16.328125 50.8125 -16.328125 Z M 50.8125 -16.328125 "/></g></g></g><g fill="#396c84" fill-opacity="1"><g transform="translate(1032.988416, 145.961597)"><g><path d="M 41.65625 0 L 41.65625 -59.3125 C 41.65625 -60.90625 41.367188 -61.96875 40.796875 -62.5 C 40.222656 -63.03125 39.140625 -63.296875 37.546875 -63.296875 L 6.90625 -63.296875 L 6.90625 -79.609375 L 50.15625 -79.609375 C 54.582031 -79.609375 57.703125 -78.566406 59.515625 -76.484375 C 61.328125 -74.410156 62.234375 -70.851562 62.234375 -65.8125 L 62.234375 0 Z M 13.671875 0 C 9.160156 0 6.90625 -2.300781 6.90625 -6.90625 L 6.90625 -49.625 L 27.46875 -49.625 L 27.46875 -18.84375 C 27.46875 -17.164062 28.128906 -16.328125 29.453125 -16.328125 L 31.1875 -16.328125 L 31.1875 0 Z M 13.671875 0 "/></g></g></g></svg>