<svg xmlns="http://www.w3.org/2000/svg" xmlns:xlink="http://www.w3.org/1999/xlink" width="346" zoomAndPan="magnify" viewBox="0 0 259.5 213.749993" height="285" preserveAspectRatio="xMidYMid meet" version="1.0"><defs><clipPath id="5e6d8fe315"><path d="M 61.261719 125.039062 L 70.363281 125.039062 L 70.363281 134.140625 L 61.261719 134.140625 Z M 61.261719 125.039062 " clip-rule="nonzero"/></clipPath><clipPath id="254c353698"><path d="M 0.261719 0.0390625 L 9.363281 0.0390625 L 9.363281 9.140625 L 0.261719 9.140625 Z M 0.261719 0.0390625 " clip-rule="nonzero"/></clipPath><clipPath id="6fec911d6d"><rect x="0" width="10" y="0" height="10"/></clipPath></defs><path fill="#f4f6f9" d="M 164.945312 47.910156 C 164.945312 47.910156 165.375 62.304688 165.375 62.304688 C 165.375 62.304688 192.585938 65.90625 194.167969 70.367188 C 195.75 74.832031 195.03125 84.1875 195.03125 84.1875 C 195.03125 84.1875 211.300781 73.964844 211.300781 73.964844 C 211.300781 73.964844 211.15625 60.144531 209.570312 57.410156 C 207.988281 54.675781 164.945312 47.910156 164.945312 47.910156 Z M 164.945312 47.910156 " fill-opacity="1" fill-rule="nonzero"/><path fill="#396c84" d="M 210.007812 74.726562 C 210.652344 74.8125 211.597656 72.613281 212.261719 68.699219 C 212.429688 67.722656 212.5625 66.632812 212.664062 65.441406 C 212.6875 65.144531 212.707031 64.839844 212.730469 64.53125 C 212.746094 64.21875 212.757812 63.898438 212.773438 63.578125 C 212.78125 62.914062 212.824219 62.3125 212.734375 61.421875 C 212.710938 61.214844 212.710938 61.003906 212.664062 60.789062 C 212.621094 60.574219 212.578125 60.355469 212.53125 60.136719 C 212.457031 59.699219 212.289062 59.257812 212.128906 58.808594 C 212.058594 58.585938 211.945312 58.367188 211.835938 58.148438 C 211.722656 57.929688 211.613281 57.707031 211.488281 57.492188 C 211.207031 57.074219 210.933594 56.636719 210.582031 56.261719 C 209.90625 55.484375 209.085938 54.808594 208.179688 54.300781 C 207.957031 54.171875 207.722656 54.058594 207.488281 53.941406 C 207.253906 53.832031 207.011719 53.730469 206.769531 53.632812 C 206.519531 53.542969 206.277344 53.449219 206.011719 53.378906 C 205.882812 53.339844 205.753906 53.300781 205.613281 53.269531 C 205.613281 53.269531 205.40625 53.21875 205.40625 53.21875 C 205.40625 53.21875 205.144531 53.167969 205.144531 53.167969 C 205.144531 53.167969 205.144531 53.164062 205.144531 53.164062 C 205.144531 53.164062 205.140625 53.160156 205.140625 53.160156 C 204.425781 52.980469 203.699219 52.792969 202.964844 52.605469 C 202.210938 52.417969 201.449219 52.230469 200.671875 52.039062 C 199.125 51.664062 197.535156 51.292969 195.914062 50.921875 C 179.015625 47.085938 165.023438 45.273438 164.660156 46.871094 C 164.296875 48.472656 177.703125 52.875 194.597656 56.714844 C 196.21875 57.082031 197.816406 57.429688 199.375 57.761719 C 200.15625 57.921875 200.925781 58.082031 201.683594 58.242188 C 202.460938 58.394531 203.226562 58.550781 203.980469 58.699219 C 203.980469 58.699219 204.128906 58.722656 204.128906 58.722656 C 204.128906 58.722656 204.277344 58.746094 204.277344 58.746094 C 204.277344 58.746094 204.308594 58.75 204.308594 58.75 C 204.308594 58.75 204.386719 58.761719 204.386719 58.761719 C 204.4375 58.769531 204.496094 58.785156 204.554688 58.796875 C 204.671875 58.816406 204.792969 58.855469 204.910156 58.886719 C 205.027344 58.925781 205.144531 58.964844 205.261719 59.003906 C 205.371094 59.050781 205.488281 59.09375 205.597656 59.140625 C 206.039062 59.335938 206.402344 59.589844 206.714844 59.875 C 206.886719 60.003906 207 60.179688 207.148438 60.328125 C 207.214844 60.410156 207.265625 60.503906 207.328125 60.589844 C 207.386719 60.675781 207.457031 60.757812 207.496094 60.863281 C 207.585938 61.058594 207.710938 61.238281 207.769531 61.464844 C 207.8125 61.570312 207.851562 61.679688 207.890625 61.785156 C 207.933594 61.890625 207.945312 62.015625 207.976562 62.128906 C 208.09375 62.535156 208.171875 63.210938 208.25 63.777344 C 208.285156 64.066406 208.320312 64.355469 208.355469 64.640625 C 208.386719 64.921875 208.417969 65.203125 208.449219 65.480469 C 208.5625 66.582031 208.660156 67.613281 208.742188 68.558594 C 209.066406 72.332031 209.347656 74.644531 210.007812 74.726562 Z M 210.007812 74.726562 " fill-opacity="1" fill-rule="nonzero"/><path fill="#f4f6f9" d="M 164.371094 61.945312 C 164.371094 61.945312 191.363281 66.914062 193.519531 71.015625 C 195.679688 75.117188 195.03125 86.5625 195.03125 86.5625 C 195.03125 86.5625 163.722656 102.324219 163.722656 102.324219 C 163.722656 102.324219 164.371094 61.945312 164.371094 61.945312 " fill-opacity="1" fill-rule="nonzero"/><path fill="#396c84" d="M 193.882812 86.460938 C 194.65625 86.5625 195.726562 84.25 196.421875 80.257812 C 196.59375 79.261719 196.738281 78.15625 196.832031 76.953125 C 196.882812 76.351562 196.90625 75.722656 196.929688 75.074219 C 196.929688 74.746094 196.933594 74.414062 196.9375 74.074219 C 196.9375 74.074219 196.9375 73.949219 196.9375 73.949219 C 196.9375 73.949219 196.925781 73.792969 196.925781 73.792969 C 196.925781 73.792969 196.902344 73.484375 196.902344 73.484375 C 196.882812 73.273438 196.867188 73.066406 196.847656 72.851562 C 196.835938 72.644531 196.789062 72.425781 196.742188 72.207031 C 196.695312 71.988281 196.648438 71.769531 196.601562 71.546875 C 196.558594 71.328125 196.46875 71.105469 196.390625 70.882812 C 196.3125 70.65625 196.230469 70.433594 196.144531 70.210938 C 195.730469 69.332031 195.214844 68.4375 194.492188 67.695312 C 193.789062 66.945312 192.953125 66.300781 192.054688 65.816406 C 191.828125 65.703125 191.597656 65.585938 191.367188 65.476562 C 191.128906 65.382812 190.894531 65.277344 190.652344 65.191406 C 190.40625 65.109375 190.164062 65.023438 189.90625 64.957031 C 189.78125 64.921875 189.652344 64.886719 189.515625 64.855469 C 189.515625 64.855469 189.3125 64.8125 189.3125 64.8125 C 189.3125 64.8125 189.054688 64.765625 189.054688 64.765625 C 189.054688 64.765625 189.054688 64.761719 189.054688 64.761719 C 188.671875 64.671875 188.28125 64.578125 187.890625 64.484375 C 175.472656 61.589844 165.105469 60.535156 164.734375 62.132812 C 164.359375 63.726562 174.125 67.371094 186.539062 70.269531 C 186.96875 70.367188 187.390625 70.464844 187.8125 70.5625 C 187.8125 70.5625 187.972656 70.589844 187.972656 70.589844 C 187.972656 70.589844 188.132812 70.617188 188.132812 70.617188 C 188.140625 70.621094 188.136719 70.617188 188.15625 70.621094 C 188.15625 70.621094 188.230469 70.636719 188.230469 70.636719 C 188.273438 70.644531 188.328125 70.660156 188.382812 70.671875 C 188.488281 70.695312 188.601562 70.734375 188.710938 70.765625 C 188.820312 70.800781 188.925781 70.847656 189.035156 70.882812 C 189.140625 70.929688 189.242188 70.976562 189.347656 71.019531 C 189.75 71.210938 190.085938 71.449219 190.375 71.707031 C 190.679688 71.957031 190.878906 72.277344 191.101562 72.597656 C 191.144531 72.691406 191.1875 72.78125 191.230469 72.871094 C 191.273438 72.964844 191.335938 73.042969 191.359375 73.148438 C 191.394531 73.25 191.429688 73.351562 191.464844 73.453125 C 191.503906 73.550781 191.546875 73.648438 191.5625 73.761719 C 191.585938 73.875 191.609375 73.984375 191.632812 74.09375 C 191.632812 74.09375 191.671875 74.257812 191.671875 74.257812 C 191.671875 74.257812 191.695312 74.339844 191.695312 74.339844 C 191.695312 74.339844 191.707031 74.449219 191.707031 74.449219 C 191.75 74.742188 191.789062 75.035156 191.828125 75.320312 C 191.898438 75.898438 191.972656 76.460938 192.03125 77.011719 C 192.152344 78.113281 192.253906 79.148438 192.347656 80.101562 C 192.722656 83.921875 193.09375 86.359375 193.882812 86.460938 Z M 193.882812 86.460938 " fill-opacity="1" fill-rule="nonzero"/><path fill="#f4f6f9" d="M 43.953125 66.082031 C 43.953125 66.082031 43.519531 26.0625 43.519531 26.0625 C 43.519531 26.0625 43.089844 20.449219 52.15625 22.175781 C 52.15625 22.175781 53.019531 12.675781 61.226562 14.402344 C 69.433594 16.128906 91.027344 19.585938 93.183594 21.742188 C 95.34375 23.902344 97.503906 32.972656 97.503906 32.972656 C 97.503906 32.972656 156.453125 45.28125 156.453125 45.28125 C 156.453125 45.28125 162.933594 46.578125 163.582031 51.757812 C 164.230469 56.941406 164.082031 142.988281 164.082031 142.988281 " fill-opacity="1" fill-rule="nonzero"/><path fill="#396c84" d="M 164.082031 142.988281 C 164.898438 142.988281 165.675781 127.796875 166.179688 103.230469 C 166.304688 97.089844 166.40625 90.363281 166.488281 83.136719 C 166.554688 75.910156 166.613281 68.195312 166.570312 60.050781 C 166.5625 59.03125 166.554688 58.003906 166.546875 56.972656 C 166.527344 55.933594 166.507812 54.886719 166.488281 53.832031 C 166.488281 53.582031 166.46875 53.28125 166.453125 52.984375 C 166.453125 52.984375 166.40625 52.101562 166.40625 52.101562 C 166.40625 52.101562 166.378906 51.660156 166.378906 51.660156 C 166.378906 51.660156 166.367188 51.4375 166.367188 51.4375 C 166.359375 51.359375 166.339844 51.257812 166.328125 51.167969 C 166.277344 50.792969 166.191406 50.421875 166.097656 50.050781 C 165.683594 48.5625 164.847656 47.191406 163.832031 46.144531 C 162.8125 45.089844 161.65625 44.3125 160.472656 43.714844 C 159.878906 43.410156 159.273438 43.160156 158.65625 42.9375 C 158.34375 42.828125 158.03125 42.726562 157.703125 42.636719 C 157.539062 42.589844 157.375 42.542969 157.183594 42.5 C 157.183594 42.5 156.722656 42.398438 156.722656 42.398438 C 154.601562 41.945312 152.460938 41.488281 150.304688 41.023438 C 141.664062 39.179688 132.714844 37.292969 123.546875 35.378906 C 119.191406 34.472656 114.886719 33.578125 110.640625 32.695312 C 108.519531 32.257812 106.410156 31.824219 104.316406 31.394531 C 103.269531 31.179688 102.226562 30.964844 101.1875 30.75 C 100.757812 30.664062 100.328125 30.578125 99.902344 30.488281 C 99.902344 30.488281 99.871094 30.488281 99.871094 30.488281 C 99.871094 30.488281 99.859375 30.464844 99.859375 30.464844 C 99.738281 30.046875 99.621094 29.628906 99.5 29.210938 C 99.203125 28.203125 98.886719 27.199219 98.542969 26.199219 C 98.195312 25.195312 97.8125 24.195312 97.359375 23.171875 C 97.359375 23.171875 96.992188 22.398438 96.992188 22.398438 C 96.863281 22.136719 96.707031 21.863281 96.566406 21.597656 C 96.566406 21.597656 96.457031 21.398438 96.457031 21.398438 C 96.457031 21.398438 96.316406 21.179688 96.316406 21.179688 C 96.316406 21.179688 96.035156 20.753906 96.035156 20.753906 C 96.035156 20.753906 95.890625 20.539062 95.890625 20.539062 C 95.890625 20.539062 95.691406 20.292969 95.691406 20.292969 C 95.691406 20.292969 95.203125 19.730469 95.203125 19.730469 C 95.007812 19.570312 94.816406 19.40625 94.613281 19.253906 C 94.613281 19.253906 93.96875 18.859375 93.96875 18.859375 C 93.75 18.726562 93.605469 18.679688 93.441406 18.597656 C 93.441406 18.597656 93.199219 18.488281 93.199219 18.488281 C 93.199219 18.488281 92.976562 18.398438 92.976562 18.398438 C 92.976562 18.398438 92.535156 18.226562 92.535156 18.226562 C 92.535156 18.226562 92.121094 18.082031 92.121094 18.082031 C 91.839844 17.980469 91.570312 17.898438 91.304688 17.8125 C 90.234375 17.484375 89.207031 17.214844 88.1875 16.964844 C 86.152344 16.472656 84.160156 16.046875 82.191406 15.652344 C 78.261719 14.867188 74.429688 14.1875 70.707031 13.535156 C 68.855469 13.207031 67.023438 12.886719 65.222656 12.566406 C 64.328125 12.40625 63.441406 12.242188 62.5625 12.082031 C 62.5625 12.082031 61.910156 11.957031 61.910156 11.957031 C 61.910156 11.957031 61.75 11.925781 61.75 11.925781 C 61.75 11.925781 61.542969 11.890625 61.542969 11.890625 C 61.542969 11.890625 61.128906 11.824219 61.128906 11.824219 C 60.859375 11.773438 60.570312 11.75 60.285156 11.726562 C 60.144531 11.71875 60.003906 11.703125 59.859375 11.695312 C 59.859375 11.695312 59.417969 11.695312 59.417969 11.695312 C 58.25 11.691406 57.007812 11.902344 55.863281 12.394531 C 54.71875 12.890625 53.703125 13.644531 52.925781 14.503906 C 52.144531 15.363281 51.566406 16.300781 51.128906 17.242188 C 50.910156 17.714844 50.722656 18.1875 50.566406 18.660156 C 50.527344 18.777344 50.484375 18.894531 50.449219 19.015625 C 50.425781 19.09375 50.425781 19.089844 50.425781 19.105469 C 50.425781 19.105469 50.417969 19.136719 50.417969 19.136719 C 50.417969 19.136719 50.394531 19.269531 50.394531 19.269531 C 50.375 19.375 50.359375 19.488281 50.355469 19.601562 C 50.359375 19.625 50.339844 19.617188 50.328125 19.617188 C 50.328125 19.617188 50.289062 19.613281 50.289062 19.613281 C 50.289062 19.613281 50.210938 19.605469 50.210938 19.605469 C 50.210938 19.605469 50.046875 19.597656 50.046875 19.597656 C 49.816406 19.59375 49.585938 19.589844 49.359375 19.585938 C 49.085938 19.578125 48.804688 19.59375 48.527344 19.601562 C 48.246094 19.621094 47.964844 19.640625 47.679688 19.671875 C 47.105469 19.746094 46.519531 19.859375 45.929688 20.042969 C 45.335938 20.234375 44.734375 20.496094 44.164062 20.867188 C 43.59375 21.230469 43.058594 21.710938 42.628906 22.273438 C 42.195312 22.835938 41.878906 23.472656 41.679688 24.117188 C 41.582031 24.4375 41.507812 24.765625 41.464844 25.09375 C 41.421875 25.429688 41.394531 25.753906 41.417969 26.15625 C 41.429688 26.585938 41.445312 27.015625 41.460938 27.441406 C 41.582031 30.855469 41.695312 34.082031 41.804688 37.105469 C 42.039062 43.15625 42.277344 48.390625 42.519531 52.683594 C 43 61.269531 43.488281 66.085938 43.953125 66.082031 C 44.414062 66.078125 44.800781 61.25 45.097656 52.628906 C 45.246094 48.316406 45.371094 43.058594 45.472656 36.980469 C 45.515625 33.941406 45.5625 30.695312 45.609375 27.265625 C 45.613281 26.835938 45.617188 26.40625 45.625 25.96875 C 45.625 25.9375 45.636719 25.824219 45.65625 25.726562 C 45.675781 25.625 45.707031 25.527344 45.738281 25.429688 C 45.890625 25.046875 46.109375 24.796875 46.492188 24.570312 C 46.683594 24.460938 46.925781 24.363281 47.203125 24.285156 C 47.488281 24.214844 47.808594 24.160156 48.152344 24.132812 C 48.328125 24.117188 48.507812 24.113281 48.6875 24.109375 C 48.878906 24.113281 49.0625 24.105469 49.253906 24.117188 C 49.253906 24.117188 49.546875 24.136719 49.546875 24.136719 C 49.546875 24.136719 49.652344 24.140625 49.652344 24.140625 C 49.734375 24.148438 49.765625 24.152344 49.824219 24.15625 C 49.824219 24.15625 50.136719 24.199219 50.136719 24.199219 C 50.554688 24.257812 50.972656 24.300781 51.398438 24.378906 C 51.398438 24.378906 51.894531 24.089844 51.894531 24.089844 C 52.058594 23.992188 52.242188 23.882812 52.351562 23.828125 C 52.351562 23.828125 52.734375 23.621094 52.734375 23.621094 C 52.734375 23.621094 52.925781 23.519531 52.925781 23.519531 C 52.988281 23.484375 53.066406 23.453125 53.097656 23.40625 C 53.433594 23.0625 53.886719 22.640625 54.554688 22.066406 C 54.589844 21.878906 54.617188 21.683594 54.660156 21.5 C 54.660156 21.5 54.796875 20.949219 54.796875 20.949219 C 54.820312 20.859375 54.851562 20.769531 54.875 20.679688 C 54.875 20.679688 54.945312 20.472656 54.945312 20.472656 C 54.96875 20.390625 55.003906 20.3125 55.03125 20.234375 C 55.148438 19.914062 55.28125 19.605469 55.433594 19.316406 C 55.726562 18.730469 56.082031 18.222656 56.472656 17.820312 C 56.867188 17.414062 57.296875 17.140625 57.761719 16.949219 C 58.234375 16.769531 58.769531 16.6875 59.378906 16.707031 C 59.378906 16.707031 59.605469 16.710938 59.605469 16.710938 C 59.683594 16.714844 59.765625 16.730469 59.84375 16.738281 C 60.003906 16.757812 60.164062 16.769531 60.332031 16.808594 C 60.332031 16.808594 60.582031 16.855469 60.582031 16.855469 C 60.582031 16.855469 60.707031 16.878906 60.707031 16.878906 C 60.707031 16.878906 60.875 16.917969 60.875 16.917969 C 61.097656 16.964844 61.324219 17.015625 61.550781 17.066406 C 62.441406 17.25 63.34375 17.441406 64.25 17.632812 C 66.054688 17.992188 67.882812 18.359375 69.738281 18.730469 C 73.433594 19.464844 77.222656 20.21875 81.0625 21.054688 C 82.980469 21.472656 84.90625 21.917969 86.8125 22.410156 C 87.757812 22.65625 88.699219 22.917969 89.585938 23.207031 C 89.808594 23.28125 90.03125 23.351562 90.230469 23.429688 C 90.230469 23.429688 90.542969 23.539062 90.542969 23.539062 C 90.542969 23.539062 90.816406 23.652344 90.816406 23.652344 C 90.816406 23.652344 90.957031 23.710938 90.957031 23.710938 C 90.957031 23.710938 91.066406 23.761719 91.066406 23.761719 C 91.066406 23.761719 91.230469 23.839844 91.230469 23.839844 C 91.242188 23.84375 91.242188 23.863281 91.253906 23.863281 C 91.25 23.863281 91.226562 23.847656 91.242188 23.863281 C 91.253906 23.878906 91.265625 23.890625 91.277344 23.902344 C 91.277344 23.902344 91.335938 23.996094 91.335938 23.996094 C 91.335938 23.996094 91.457031 24.191406 91.457031 24.191406 C 91.457031 24.191406 91.519531 24.285156 91.519531 24.285156 C 91.519531 24.285156 91.585938 24.414062 91.585938 24.414062 C 91.671875 24.585938 91.765625 24.742188 91.851562 24.925781 C 91.851562 24.925781 92.113281 25.5 92.113281 25.5 C 92.457031 26.300781 92.78125 27.167969 93.082031 28.0625 C 93.378906 28.960938 93.660156 29.882812 93.925781 30.816406 C 93.925781 30.816406 94.121094 31.523438 94.121094 31.523438 C 94.121094 31.523438 94.382812 32.492188 94.382812 32.492188 C 94.632812 33.46875 94.867188 34.457031 95.105469 35.449219 C 103.921875 37.308594 113.027344 39.226562 122.34375 41.191406 C 131.515625 43.105469 140.476562 44.957031 149.136719 46.722656 C 151.300781 47.164062 153.445312 47.601562 155.570312 48.035156 C 155.570312 48.035156 155.90625 48.101562 155.90625 48.101562 C 155.976562 48.117188 156.074219 48.140625 156.171875 48.167969 C 156.367188 48.21875 156.566406 48.28125 156.765625 48.347656 C 157.164062 48.488281 157.558594 48.644531 157.921875 48.824219 C 158.65625 49.183594 159.296875 49.621094 159.757812 50.089844 C 160.226562 50.566406 160.519531 51.050781 160.683594 51.589844 C 160.71875 51.726562 160.757812 51.867188 160.777344 52.011719 C 160.785156 52.050781 160.792969 52.078125 160.796875 52.128906 C 160.796875 52.128906 160.808594 52.300781 160.808594 52.300781 C 160.808594 52.300781 160.828125 52.640625 160.828125 52.640625 C 160.828125 52.640625 160.875 53.320312 160.875 53.320312 C 160.890625 53.546875 160.910156 53.765625 160.914062 54.035156 C 160.949219 55.058594 160.988281 56.078125 161.023438 57.089844 C 161.046875 58.113281 161.074219 59.128906 161.101562 60.136719 C 161.292969 68.226562 161.417969 75.945312 161.5625 83.160156 C 161.699219 90.375 161.839844 97.097656 161.980469 103.238281 C 162.554688 127.792969 163.257812 142.984375 164.082031 142.988281 Z M 164.082031 142.988281 " fill-opacity="1" fill-rule="nonzero"/><path fill="#f4f6f9" d="M 37.972656 104.402344 C 37.257812 103.683594 37.558594 52.546875 47.652344 55.941406 C 57.746094 59.335938 78.257812 61.125 80.476562 63.28125 C 82.695312 65.441406 84.910156 74.511719 84.910156 74.511719 C 84.910156 74.511719 145.457031 86.820312 145.457031 86.820312 C 145.457031 86.820312 152.109375 88.117188 152.777344 93.296875 C 153.441406 98.480469 153.140625 124.0625 153.140625 124.0625 " fill-opacity="1" fill-rule="nonzero"/><path fill="#396c84" d="M 153.140625 136.609375 C 153.550781 136.613281 153.96875 134.246094 154.347656 129.957031 C 154.539062 127.8125 154.714844 112.644531 154.863281 109.59375 C 155.011719 106.539062 155.144531 103.066406 155.1875 99.199219 C 155.199219 98.234375 155.195312 97.234375 155.1875 96.214844 C 155.179688 95.703125 155.160156 95.171875 155.148438 94.640625 C 155.144531 94.382812 155.121094 94.097656 155.101562 93.808594 C 155.082031 93.519531 155.070312 93.25 155.039062 92.9375 C 154.882812 91.519531 154.304688 90.058594 153.421875 88.882812 C 152.542969 87.695312 151.421875 86.78125 150.25 86.070312 C 149.660156 85.714844 149.050781 85.40625 148.425781 85.140625 C 147.796875 84.875 147.167969 84.644531 146.480469 84.453125 C 146.308594 84.40625 146.125 84.359375 145.914062 84.3125 C 145.914062 84.3125 145.484375 84.214844 145.484375 84.214844 C 145.199219 84.152344 144.914062 84.085938 144.625 84.023438 C 144.046875 83.894531 143.464844 83.765625 142.878906 83.632812 C 140.535156 83.113281 138.121094 82.582031 135.648438 82.035156 C 125.75 79.867188 114.847656 77.566406 103.386719 75.238281 C 100.3125 74.621094 97.277344 74.007812 94.289062 73.40625 C 92.796875 73.109375 91.3125 72.816406 89.84375 72.523438 C 89.105469 72.378906 88.375 72.234375 87.648438 72.09375 C 87.648438 72.09375 87.375 72.039062 87.375 72.039062 C 87.375 72.039062 87.304688 72.027344 87.304688 72.027344 C 87.289062 72.023438 87.300781 72.023438 87.296875 72.023438 C 87.296875 72.023438 87.292969 72.023438 87.292969 72.023438 C 87.292969 72.023438 87.28125 72.027344 87.28125 72.027344 C 87.28125 72.027344 87.253906 72.027344 87.253906 72.027344 C 87.253906 72.027344 87.242188 72.011719 87.242188 72.011719 C 87.234375 72 87.238281 72.019531 87.214844 71.949219 C 87.136719 71.675781 87.054688 71.402344 86.972656 71.128906 C 86.886719 70.835938 86.796875 70.546875 86.707031 70.257812 C 86.34375 69.097656 85.953125 67.949219 85.511719 66.800781 C 85.0625 65.652344 84.589844 64.519531 83.910156 63.316406 C 83.738281 63.015625 83.550781 62.707031 83.320312 62.382812 C 83.203125 62.214844 83.101562 62.074219 82.933594 61.871094 C 82.757812 61.640625 82.566406 61.464844 82.375 61.273438 C 82.167969 61.105469 81.960938 60.929688 81.738281 60.785156 C 81.507812 60.652344 81.269531 60.507812 81.050781 60.386719 C 81.050781 60.386719 80.527344 60.152344 80.527344 60.152344 C 80.351562 60.074219 80.210938 60.027344 80.050781 59.964844 C 78.8125 59.507812 77.714844 59.226562 76.617188 58.945312 C 75.523438 58.675781 74.453125 58.433594 73.398438 58.21875 C 71.292969 57.773438 69.25 57.402344 67.261719 57.050781 C 63.289062 56.355469 59.542969 55.78125 56.058594 55.253906 C 54.320312 54.996094 52.644531 54.746094 51.039062 54.503906 C 50.242188 54.382812 49.460938 54.261719 48.699219 54.144531 C 48.511719 54.117188 48.320312 54.085938 48.136719 54.054688 C 48.054688 54.042969 47.910156 54.027344 47.789062 54.011719 C 47.789062 54.011719 47.410156 53.96875 47.410156 53.96875 C 47.410156 53.96875 47.039062 53.933594 47.039062 53.933594 C 46.910156 53.929688 46.78125 53.9375 46.652344 53.9375 C 46.394531 53.949219 46.144531 53.941406 45.890625 53.980469 C 44.867188 54.09375 43.90625 54.488281 43.117188 54.980469 C 42.3125 55.476562 41.710938 56.101562 41.199219 56.710938 C 40.199219 57.957031 39.597656 59.222656 39.148438 60.398438 C 38.699219 61.578125 38.40625 63.179688 38.183594 64.195312 C 37.964844 65.210938 37.824219 82.324219 37.730469 83.15625 C 37.539062 84.824219 37.527344 86.613281 37.589844 87.488281 C 37.652344 88.367188 37.796875 88.828125 37.972656 88.84375 C 38.152344 88.855469 38.355469 88.429688 38.625 87.613281 C 38.894531 86.800781 39.226562 85.59375 39.707031 84.070312 C 39.84375 81.554688 40.757812 63.351562 41.820312 61.597656 C 42.320312 60.648438 42.945312 59.695312 43.699219 58.941406 C 44.082031 58.574219 44.484375 58.238281 44.914062 58.042969 C 45.339844 57.84375 45.765625 57.710938 46.226562 57.710938 C 46.339844 57.699219 46.460938 57.730469 46.578125 57.730469 C 46.640625 57.734375 46.699219 57.734375 46.757812 57.738281 C 46.757812 57.738281 46.945312 57.78125 46.945312 57.78125 C 46.945312 57.78125 47.136719 57.820312 47.136719 57.820312 C 47.203125 57.832031 47.25 57.835938 47.359375 57.863281 C 47.546875 57.910156 47.738281 57.957031 47.929688 58.003906 C 48.695312 58.1875 49.480469 58.367188 50.277344 58.546875 C 51.875 58.910156 53.535156 59.269531 55.257812 59.640625 C 58.703125 60.378906 62.398438 61.144531 66.285156 62 C 68.226562 62.429688 70.21875 62.878906 72.222656 63.375 C 73.230469 63.621094 74.234375 63.882812 75.230469 64.164062 C 76.214844 64.445312 77.226562 64.753906 78.050781 65.085938 C 78.144531 65.128906 78.265625 65.167969 78.339844 65.207031 C 78.339844 65.207031 78.570312 65.320312 78.570312 65.320312 C 78.597656 65.335938 78.589844 65.335938 78.601562 65.34375 C 78.605469 65.355469 78.613281 65.363281 78.621094 65.363281 C 78.625 65.371094 78.636719 65.386719 78.628906 65.382812 C 78.640625 65.394531 78.699219 65.480469 78.738281 65.542969 C 78.828125 65.679688 78.933594 65.855469 79.035156 66.042969 C 79.445312 66.816406 79.839844 67.792969 80.203125 68.789062 C 80.5625 69.792969 80.898438 70.847656 81.214844 71.921875 C 81.292969 72.191406 81.371094 72.464844 81.449219 72.734375 C 81.527344 73.023438 81.609375 73.316406 81.6875 73.609375 C 81.824219 74.109375 81.980469 74.695312 82.117188 75.261719 C 82.257812 75.835938 82.394531 76.410156 82.535156 76.988281 C 86 77.707031 89.53125 78.445312 93.117188 79.191406 C 96.105469 79.804688 99.136719 80.425781 102.210938 81.058594 C 113.675781 83.390625 124.613281 85.527344 134.578125 87.398438 C 137.070312 87.863281 139.5 88.3125 141.859375 88.753906 C 142.449219 88.859375 143.035156 88.96875 143.617188 89.074219 C 143.910156 89.128906 144.199219 89.179688 144.488281 89.234375 C 144.488281 89.234375 144.921875 89.3125 144.921875 89.3125 C 144.996094 89.324219 145.09375 89.34375 145.207031 89.371094 C 146.101562 89.578125 147.023438 89.921875 147.789062 90.335938 C 148.5625 90.75 149.203125 91.246094 149.652344 91.785156 C 150.105469 92.328125 150.375 92.902344 150.496094 93.558594 C 150.53125 93.761719 150.558594 94.015625 150.585938 94.238281 C 150.617188 94.46875 150.648438 94.691406 150.667969 94.945312 C 150.710938 95.441406 150.757812 95.921875 150.796875 96.410156 C 150.867188 97.394531 150.9375 98.355469 150.988281 99.304688 C 151.214844 103.101562 151.378906 106.5625 151.546875 109.601562 C 151.710938 112.640625 151.871094 127.804688 152.035156 129.945312 C 152.371094 134.230469 152.730469 136.605469 153.140625 136.609375 Z M 153.140625 136.609375 " fill-opacity="1" fill-rule="nonzero"/><path fill="#f4f6f9" d="M 13.722656 148.132812 C 13.722656 148.132812 13.289062 80.558594 13.289062 80.558594 C 13.289062 80.558594 12.855469 74.945312 21.925781 76.671875 C 21.925781 76.671875 22.789062 67.171875 30.996094 68.898438 C 39.203125 70.625 60.796875 74.078125 62.953125 76.238281 C 65.113281 78.398438 67.273438 87.46875 67.273438 87.46875 C 67.273438 87.46875 126.222656 99.777344 126.222656 99.777344 C 126.222656 99.777344 132.703125 101.070312 133.351562 106.253906 C 133.996094 111.4375 134.136719 126.367188 134.136719 126.367188 " fill-opacity="1" fill-rule="nonzero"/><path fill="#396c84" d="M 134.136719 158.242188 C 135.417969 158.257812 134.921875 123.980469 135.179688 119.667969 C 135.304688 117.511719 135.402344 114.871094 135.417969 111.792969 C 135.417969 110.246094 135.414062 108.605469 135.308594 106.800781 C 135.292969 106.570312 135.277344 106.34375 135.261719 106.109375 C 135.257812 106.007812 135.230469 105.839844 135.214844 105.707031 C 135.195312 105.5625 135.183594 105.417969 135.148438 105.277344 C 135.046875 104.699219 134.863281 104.125 134.628906 103.566406 C 134.148438 102.449219 133.394531 101.441406 132.515625 100.617188 C 131.632812 99.796875 130.628906 99.144531 129.570312 98.617188 C 129.039062 98.351562 128.496094 98.125 127.925781 97.921875 C 127.640625 97.820312 127.355469 97.726562 127.042969 97.640625 C 127.042969 97.640625 126.796875 97.574219 126.796875 97.574219 C 126.796875 97.574219 126.5625 97.519531 126.5625 97.519531 C 126.5625 97.519531 126.179688 97.425781 126.179688 97.425781 C 124.140625 96.945312 122.015625 96.445312 119.816406 95.925781 C 115.417969 94.894531 110.710938 93.820312 105.753906 92.707031 C 95.84375 90.484375 84.929688 88.121094 73.453125 85.726562 C 72.515625 85.53125 71.578125 85.335938 70.648438 85.140625 C 70.648438 85.140625 69.949219 84.996094 69.949219 84.996094 C 69.949219 84.996094 69.683594 84.941406 69.683594 84.941406 C 69.683594 84.941406 69.683594 84.945312 69.679688 84.945312 C 69.679688 84.945312 69.675781 84.945312 69.675781 84.941406 C 69.554688 84.519531 69.4375 84.101562 69.316406 83.679688 C 69.019531 82.667969 68.703125 81.664062 68.359375 80.660156 C 68.011719 79.660156 67.625 78.65625 67.175781 77.632812 C 67.175781 77.632812 66.808594 76.859375 66.808594 76.859375 C 66.675781 76.597656 66.523438 76.324219 66.378906 76.058594 C 66.378906 76.058594 66.265625 75.859375 66.265625 75.859375 C 66.265625 75.859375 66.128906 75.640625 66.128906 75.640625 C 66.128906 75.640625 65.847656 75.214844 65.847656 75.214844 C 65.796875 75.140625 65.753906 75.074219 65.703125 75 C 65.703125 75 65.5 74.753906 65.5 74.753906 C 65.5 74.753906 65.007812 74.1875 65.007812 74.1875 C 64.796875 74.015625 64.59375 73.835938 64.371094 73.679688 C 64.371094 73.679688 63.675781 73.253906 63.675781 73.253906 C 63.285156 73.066406 62.953125 72.914062 62.644531 72.800781 C 62.011719 72.550781 61.445312 72.375 60.871094 72.195312 C 59.738281 71.855469 58.652344 71.582031 57.574219 71.324219 C 55.421875 70.816406 53.328125 70.394531 51.273438 69.992188 C 47.164062 69.203125 43.222656 68.539062 39.472656 67.917969 C 37.605469 67.605469 35.78125 67.300781 34.007812 67.007812 C 33.128906 66.855469 32.257812 66.703125 31.402344 66.554688 C 30.355469 66.359375 29.246094 66.292969 28.121094 66.429688 C 27.839844 66.457031 27.554688 66.523438 27.277344 66.574219 C 27 66.636719 26.722656 66.722656 26.449219 66.800781 C 26.175781 66.902344 25.90625 66.996094 25.644531 67.117188 C 25.386719 67.246094 25.125 67.359375 24.886719 67.511719 C 23.90625 68.09375 23.089844 68.851562 22.472656 69.664062 C 21.851562 70.472656 21.390625 71.324219 21.042969 72.164062 C 20.867188 72.582031 20.71875 73 20.589844 73.417969 C 20.574219 73.46875 20.558594 73.523438 20.546875 73.574219 C 20.53125 73.625 20.511719 73.691406 20.511719 73.695312 C 20.511719 73.695312 20.496094 73.785156 20.496094 73.785156 C 20.484375 73.84375 20.476562 73.90625 20.46875 73.96875 C 20.445312 74.140625 20.429688 74.324219 20.421875 74.515625 C 20.433594 74.550781 20.402344 74.535156 20.382812 74.535156 C 20.382812 74.535156 20.320312 74.535156 20.320312 74.535156 C 20.320312 74.535156 20.195312 74.527344 20.195312 74.527344 C 20.113281 74.523438 20.027344 74.527344 19.9375 74.523438 C 19.855469 74.523438 19.773438 74.527344 19.6875 74.53125 C 19.648438 74.53125 19.601562 74.53125 19.5625 74.535156 C 19.433594 74.535156 19.308594 74.535156 19.183594 74.535156 C 18.679688 74.539062 18.167969 74.578125 17.664062 74.640625 C 16.65625 74.773438 15.632812 75.046875 14.691406 75.574219 C 13.75 76.085938 12.933594 76.917969 12.476562 77.847656 C 12.242188 78.308594 12.085938 78.785156 12 79.253906 C 11.914062 79.722656 11.878906 80.183594 11.929688 80.691406 C 12.613281 86.691406 11.90625 124.0625 13.722656 124.0625 C 15.242188 124.0625 14.519531 86.605469 14.652344 80.527344 C 14.664062 80.359375 14.710938 80.128906 14.785156 79.910156 C 14.855469 79.695312 14.960938 79.488281 15.089844 79.308594 C 15.347656 78.949219 15.6875 78.667969 16.179688 78.46875 C 16.664062 78.269531 17.285156 78.152344 17.984375 78.128906 C 18.335938 78.121094 18.703125 78.128906 19.085938 78.164062 C 19.085938 78.164062 19.371094 78.1875 19.371094 78.1875 C 19.554688 78.195312 19.738281 78.226562 19.921875 78.253906 C 20.289062 78.3125 20.664062 78.351562 21.042969 78.429688 C 21.199219 78.359375 21.359375 78.285156 21.515625 78.214844 C 21.671875 78.140625 21.847656 78.054688 21.964844 78.015625 C 22.09375 77.964844 22.21875 77.914062 22.351562 77.863281 C 22.351562 77.863281 22.542969 77.785156 22.542969 77.785156 C 22.605469 77.757812 22.6875 77.742188 22.710938 77.6875 C 23.007812 77.332031 23.40625 76.910156 24.007812 76.351562 C 24.007812 76.351562 24.101562 75.886719 24.101562 75.886719 C 24.101562 75.886719 24.222656 75.433594 24.222656 75.433594 C 24.257812 75.28125 24.308594 75.128906 24.355469 74.984375 C 24.355469 74.984375 24.410156 74.839844 24.410156 74.839844 C 24.421875 74.800781 24.4375 74.765625 24.449219 74.730469 C 24.566406 74.4375 24.691406 74.148438 24.832031 73.875 C 25.109375 73.320312 25.445312 72.816406 25.820312 72.390625 C 26.195312 71.964844 26.617188 71.644531 27.070312 71.414062 C 27.523438 71.183594 28.019531 71.054688 28.589844 71.027344 C 29.15625 70.996094 29.785156 71.054688 30.453125 71.21875 C 30.882812 71.316406 31.3125 71.414062 31.75 71.515625 C 32.1875 71.613281 32.628906 71.710938 33.074219 71.8125 C 34.847656 72.199219 36.667969 72.582031 38.527344 72.96875 C 42.246094 73.742188 46.144531 74.535156 50.152344 75.417969 C 52.152344 75.863281 54.1875 76.328125 56.203125 76.847656 C 57.207031 77.113281 58.214844 77.386719 59.164062 77.691406 C 59.632812 77.84375 60.105469 78.003906 60.492188 78.167969 C 60.699219 78.246094 60.863281 78.332031 60.972656 78.382812 C 60.972656 78.382812 60.980469 78.390625 60.980469 78.390625 C 60.976562 78.398438 60.980469 78.394531 60.984375 78.398438 C 60.980469 78.398438 60.957031 78.378906 60.96875 78.394531 C 60.980469 78.40625 60.992188 78.417969 61.003906 78.429688 C 61.003906 78.429688 61.0625 78.523438 61.0625 78.523438 C 61.0625 78.523438 61.179688 78.710938 61.179688 78.710938 C 61.179688 78.710938 61.242188 78.804688 61.242188 78.804688 C 61.242188 78.804688 61.304688 78.929688 61.304688 78.929688 C 61.390625 79.101562 61.480469 79.257812 61.570312 79.4375 C 61.570312 79.4375 61.828125 80.007812 61.828125 80.007812 C 62.171875 80.804688 62.492188 81.667969 62.792969 82.5625 C 63.089844 83.460938 63.375 84.382812 63.644531 85.320312 C 63.644531 85.320312 63.839844 86.023438 63.839844 86.023438 C 63.839844 86.023438 64.101562 86.996094 64.101562 86.996094 C 64.355469 87.980469 64.59375 88.984375 64.835938 89.984375 C 67.28125 90.5 69.753906 91.015625 72.242188 91.539062 C 83.722656 93.933594 94.675781 96.136719 104.652344 98.066406 C 109.640625 99.03125 114.386719 99.929688 118.828125 100.746094 C 121.050781 101.152344 123.199219 101.542969 125.265625 101.917969 C 125.265625 101.917969 125.648438 101.984375 125.648438 101.984375 C 125.648438 101.984375 125.796875 102.011719 125.796875 102.011719 C 125.796875 102.011719 125.929688 102.035156 125.929688 102.035156 C 126.121094 102.078125 126.332031 102.132812 126.535156 102.1875 C 126.941406 102.308594 127.34375 102.445312 127.726562 102.605469 C 128.488281 102.925781 129.175781 103.320312 129.738281 103.765625 C 130.292969 104.21875 130.722656 104.714844 131.011719 105.257812 C 131.152344 105.527344 131.273438 105.808594 131.351562 106.105469 C 131.378906 106.175781 131.386719 106.253906 131.40625 106.328125 C 131.421875 106.410156 131.445312 106.460938 131.457031 106.578125 C 131.488281 106.78125 131.519531 106.984375 131.550781 107.1875 C 131.785156 108.824219 131.945312 110.449219 132.101562 111.949219 C 132.398438 114.964844 132.636719 117.585938 132.867188 119.722656 C 133.320312 124 131.972656 159.164062 134.136719 158.242188 Z M 134.136719 158.242188 " fill-opacity="1" fill-rule="nonzero"/><path stroke-linecap="round" transform="matrix(0.248968, 0, 0, 0.248968, 9.258114, 87.468075)" fill-opacity="1" fill="#396c84" fill-rule="nonzero" stroke-linejoin="round" d="M -18.499437 7.518108 C -18.499437 7.518108 16.771142 -15.608598 16.771142 -15.608598 C 16.771142 -15.608598 18.497016 15.614024 18.497016 15.614024 C 18.497016 15.614024 -18.499437 7.518108 -18.499437 7.518108 Z M -18.499437 7.518108 " stroke="#396c84" stroke-width="0.6" stroke-opacity="1" stroke-miterlimit="4"/><path fill="#f4f6f9" d="M 4.652344 89.195312 C 4.652344 89.195312 4.652344 174.996094 4.652344 174.996094 C 4.652344 174.996094 130.449219 205.75 130.449219 205.75 C 132.953125 206.363281 135.363281 204.46875 135.363281 201.894531 C 135.363281 201.894531 135.363281 117.410156 135.363281 117.410156 C 135.363281 117.410156 4.652344 89.195312 4.652344 89.195312 Z M 4.652344 89.195312 " fill-opacity="1" fill-rule="nonzero"/><path fill="#f4f6f9" d="M 135.363281 117.410156 C 135.363281 117.410156 226.835938 67.1875 226.835938 67.1875 C 227.902344 66.601562 229.203125 67.382812 229.183594 68.601562 C 229.183594 68.601562 227.929688 150.953125 227.929688 150.953125 C 227.929688 150.953125 138.792969 205.019531 138.792969 205.019531 C 137.261719 205.882812 135.363281 204.777344 135.363281 203.019531 C 135.363281 203.019531 135.363281 117.410156 135.363281 117.410156 Z M 135.363281 117.410156 " fill-opacity="1" fill-rule="nonzero"/><path fill="#396c84" d="M 4.652344 89.195312 C 4.574219 89.546875 7.867188 90.609375 14.050781 92.273438 C 20.230469 93.941406 29.300781 96.210938 40.777344 98.96875 C 52.253906 101.730469 66.140625 104.980469 81.953125 108.609375 C 89.863281 110.410156 98.25 112.320312 107.058594 114.324219 C 115.070312 116.128906 123.460938 118.019531 132.179688 119.984375 C 132.179688 119.984375 132.164062 120.183594 132.164062 120.183594 C 132.15625 120.929688 132.152344 121.679688 132.148438 122.429688 C 132.136719 124.109375 132.125 125.804688 132.117188 127.507812 C 132.097656 130.910156 132.078125 134.355469 132.0625 137.839844 C 132.03125 144.804688 132.003906 151.917969 131.972656 159.164062 C 131.957031 166.40625 131.9375 173.78125 131.921875 181.265625 C 131.914062 185.007812 131.910156 188.78125 131.90625 192.574219 C 131.90625 194.472656 131.902344 196.378906 131.902344 198.289062 C 131.902344 199.242188 131.902344 200.199219 131.902344 201.15625 C 131.902344 201.15625 131.902344 201.875 131.902344 201.875 C 131.894531 201.925781 131.890625 201.917969 131.894531 201.945312 C 131.902344 201.960938 131.890625 201.976562 131.886719 201.992188 C 131.878906 202.050781 131.867188 202.101562 131.828125 202.148438 C 131.828125 202.160156 131.820312 202.171875 131.808594 202.179688 C 131.800781 202.1875 131.796875 202.199219 131.789062 202.210938 C 131.761719 202.222656 131.761719 202.257812 131.730469 202.265625 C 131.699219 202.3125 131.640625 202.324219 131.601562 202.355469 C 131.503906 202.386719 131.425781 202.417969 131.320312 202.390625 C 131.304688 202.386719 131.289062 202.386719 131.277344 202.386719 C 131.277344 202.386719 131 202.320312 131 202.320312 C 131 202.320312 130.425781 202.179688 130.425781 202.179688 C 130.425781 202.179688 129.28125 201.902344 129.28125 201.902344 C 128.515625 201.714844 127.753906 201.53125 126.992188 201.34375 C 123.949219 200.601562 120.921875 199.867188 117.910156 199.132812 C 111.886719 197.671875 105.933594 196.230469 100.0625 194.808594 C 88.316406 191.984375 76.894531 189.242188 65.882812 186.597656 C 54.863281 183.980469 44.25 181.464844 34.128906 179.066406 C 29.066406 177.878906 24.125 176.71875 19.320312 175.589844 C 16.914062 175.03125 14.542969 174.476562 12.207031 173.933594 C 11.039062 173.660156 9.878906 173.390625 8.730469 173.125 C 8.464844 173.0625 8.199219 173.003906 7.933594 172.941406 C 7.933594 172.941406 7.757812 172.910156 7.757812 172.910156 C 7.636719 172.886719 7.515625 172.863281 7.394531 172.839844 C 7.382812 172.671875 7.375 172.503906 7.363281 172.335938 C 7.355469 171.605469 7.34375 170.878906 7.335938 170.15625 C 7.3125 168.5625 7.292969 166.988281 7.273438 165.429688 C 7.226562 162.316406 7.183594 159.28125 7.140625 156.324219 C 7.039062 150.410156 6.945312 144.816406 6.855469 139.570312 C 6.65625 129.082031 6.4375 119.988281 6.203125 112.523438 C 5.738281 97.597656 5.210938 89.195312 4.652344 89.195312 C 4.09375 89.195312 3.566406 97.597656 3.097656 112.523438 C 2.867188 119.988281 2.648438 129.082031 2.445312 139.570312 C 2.359375 144.816406 2.261719 150.410156 2.164062 156.324219 C 2.121094 159.28125 2.074219 162.316406 2.03125 165.429688 C 2.011719 166.988281 1.988281 168.5625 1.96875 170.15625 C 1.957031 171.027344 1.949219 171.90625 1.9375 172.785156 C 1.929688 174.230469 1.917969 175.6875 1.910156 177.148438 C 11.582031 179.609375 21.871094 182.230469 32.683594 184.984375 C 42.769531 187.523438 53.34375 190.1875 64.328125 192.953125 C 75.320312 195.6875 86.71875 198.523438 98.441406 201.441406 C 104.308594 202.886719 110.253906 204.355469 116.269531 205.835938 C 119.28125 206.578125 122.304688 207.320312 125.351562 208.066406 C 126.109375 208.253906 126.871094 208.441406 127.636719 208.628906 C 127.636719 208.628906 128.78125 208.90625 128.78125 208.90625 C 128.78125 208.90625 129.355469 209.046875 129.355469 209.046875 C 129.355469 209.046875 129.652344 209.121094 129.652344 209.121094 C 129.832031 209.15625 130.011719 209.191406 130.191406 209.222656 C 131.636719 209.480469 133.1875 209.253906 134.523438 208.636719 C 135.1875 208.316406 135.816406 207.921875 136.359375 207.421875 C 136.640625 207.183594 136.882812 206.902344 137.128906 206.625 C 137.246094 206.484375 137.351562 206.332031 137.460938 206.183594 C 137.574219 206.035156 137.675781 205.878906 137.765625 205.71875 C 138.238281 204.949219 138.554688 204.078125 138.707031 203.195312 C 138.746094 202.972656 138.785156 202.75 138.796875 202.527344 C 138.8125 202.3125 138.824219 202.070312 138.828125 201.875 C 138.828125 201.875 138.828125 201.15625 138.828125 201.15625 C 138.828125 200.199219 138.828125 199.242188 138.828125 198.289062 C 138.828125 196.378906 138.824219 194.472656 138.824219 192.574219 C 138.820312 188.78125 138.816406 185.007812 138.8125 181.265625 C 138.792969 173.78125 138.773438 166.40625 138.757812 159.164062 C 138.6875 143.78125 138.617188 128.953125 138.550781 114.839844 C 135.300781 114.15625 132.078125 113.476562 128.890625 112.808594 C 126.527344 112.316406 124.191406 111.832031 121.878906 111.351562 C 117.253906 110.394531 112.726562 109.460938 108.304688 108.546875 C 99.453125 106.738281 91.027344 105.019531 83.078125 103.398438 C 67.175781 100.179688 53.1875 97.414062 41.59375 95.195312 C 30 92.972656 20.800781 91.300781 14.484375 90.269531 C 8.164062 89.234375 4.726562 88.847656 4.652344 89.195312 Z M 4.652344 89.195312 " fill-opacity="1" fill-rule="nonzero"/><path fill="#396c84" d="M 229.011719 64.363281 C 228.363281 64.363281 211.519531 60.691406 211.519531 60.691406 C 211.519531 60.691406 210.65625 77.535156 210.65625 77.535156 C 210.65625 77.535156 229.011719 64.363281 229.011719 64.363281 Z M 229.011719 64.363281 " fill-opacity="1" fill-rule="nonzero"/><path fill="#396c84" d="M 77.199219 142.5 C 77.199219 142.5 46.652344 133.785156 46.652344 133.785156 C 44.238281 133.09375 42.53125 130.945312 42.402344 128.4375 C 42.210938 124.585938 45.722656 121.601562 49.492188 122.410156 C 49.492188 122.410156 80.285156 129.027344 80.285156 129.027344 C 83.242188 129.660156 85.230469 132.4375 84.878906 135.441406 C 84.878906 135.441406 84.632812 137.542969 84.632812 137.542969 C 84.210938 141.132812 80.675781 143.492188 77.199219 142.5 Z M 77.199219 142.5 " fill-opacity="1" fill-rule="nonzero"/><path fill="#396c84" d="M 77.199219 142.5 C 77.171875 142.597656 77.230469 142.714844 77.386719 142.851562 C 77.464844 142.921875 77.566406 142.996094 77.691406 143.074219 C 77.820312 143.15625 77.976562 143.210938 78.15625 143.28125 C 78.246094 143.316406 78.34375 143.351562 78.449219 143.386719 C 78.554688 143.414062 78.664062 143.4375 78.785156 143.460938 C 78.902344 143.484375 79.027344 143.503906 79.160156 143.53125 C 79.289062 143.542969 79.429688 143.550781 79.574219 143.558594 C 80.15625 143.597656 80.839844 143.519531 81.585938 143.300781 C 82.332031 143.085938 83.136719 142.683594 83.890625 142.0625 C 84.648438 141.445312 85.355469 140.585938 85.847656 139.507812 C 85.976562 139.242188 86.0625 138.953125 86.171875 138.664062 C 86.257812 138.371094 86.324219 138.0625 86.394531 137.75 C 86.488281 137.269531 86.585938 136.769531 86.683594 136.257812 C 86.707031 136.128906 86.734375 136 86.757812 135.871094 C 86.757812 135.871094 86.792969 135.675781 86.792969 135.675781 C 86.792969 135.675781 86.828125 135.414062 86.828125 135.414062 C 86.847656 135.238281 86.871094 135.058594 86.886719 134.878906 C 86.890625 134.695312 86.894531 134.511719 86.898438 134.328125 C 86.886719 133.589844 86.785156 132.828125 86.550781 132.074219 C 86.074219 130.582031 85.132812 129.117188 83.710938 128.070312 C 83.007812 127.542969 82.195312 127.121094 81.320312 126.839844 C 81.320312 126.839844 80.988281 126.742188 80.988281 126.742188 C 80.988281 126.742188 80.820312 126.691406 80.820312 126.691406 C 80.820312 126.691406 80.691406 126.65625 80.691406 126.65625 C 80.53125 126.617188 80.371094 126.574219 80.207031 126.53125 C 79.882812 126.449219 79.558594 126.363281 79.230469 126.28125 C 76.59375 125.605469 73.769531 124.90625 70.796875 124.191406 C 64.851562 122.757812 58.296875 121.265625 51.398438 119.785156 C 50.964844 119.691406 50.535156 119.597656 50.105469 119.507812 C 49.78125 119.453125 49.457031 119.402344 49.132812 119.359375 C 48.808594 119.328125 48.476562 119.324219 48.148438 119.316406 C 46.832031 119.335938 45.527344 119.65625 44.375 120.234375 C 43.21875 120.808594 42.207031 121.632812 41.417969 122.621094 C 40.628906 123.609375 40.058594 124.769531 39.765625 125.984375 C 39.765625 125.984375 39.65625 126.441406 39.65625 126.441406 C 39.625 126.59375 39.613281 126.746094 39.589844 126.902344 C 39.558594 127.210938 39.507812 127.515625 39.515625 127.820312 C 39.503906 128.433594 39.535156 129.042969 39.65625 129.640625 C 39.867188 130.84375 40.351562 131.972656 41.015625 132.957031 C 41.683594 133.933594 42.542969 134.761719 43.523438 135.382812 C 43.769531 135.53125 44.015625 135.683594 44.273438 135.804688 C 44.527344 135.9375 44.792969 136.050781 45.058594 136.152344 C 45.320312 136.261719 45.597656 136.332031 45.863281 136.417969 C 46.054688 136.46875 46.242188 136.515625 46.429688 136.566406 C 52.351562 138.097656 57.707031 139.402344 62.226562 140.410156 C 71.269531 142.433594 76.972656 143.289062 77.199219 142.5 C 77.421875 141.710938 72.125 139.425781 63.378906 136.375 C 59.007812 134.847656 53.769531 133.125 47.933594 131.304688 C 47.753906 131.25 47.574219 131.191406 47.394531 131.136719 C 47.300781 131.089844 47.199219 131.070312 47.109375 131.019531 C 47.015625 130.976562 46.921875 130.9375 46.835938 130.878906 C 46.742188 130.835938 46.664062 130.769531 46.578125 130.714844 C 46.242188 130.480469 45.957031 130.167969 45.738281 129.816406 C 45.527344 129.460938 45.371094 129.070312 45.320312 128.65625 C 45.28125 128.453125 45.289062 128.242188 45.300781 128.027344 C 45.289062 127.917969 45.324219 127.820312 45.335938 127.714844 C 45.34375 127.664062 45.34375 127.609375 45.359375 127.5625 C 45.375 127.511719 45.390625 127.460938 45.402344 127.414062 C 45.617188 126.621094 46.207031 125.898438 46.984375 125.53125 C 47.371094 125.347656 47.789062 125.25 48.214844 125.246094 C 48.320312 125.257812 48.429688 125.253906 48.539062 125.261719 C 48.644531 125.285156 48.753906 125.300781 48.863281 125.3125 C 49.292969 125.402344 49.71875 125.496094 50.148438 125.589844 C 57.050781 127.070312 63.640625 128.402344 69.648438 129.539062 C 72.652344 130.105469 75.515625 130.628906 78.195312 131.09375 C 78.53125 131.152344 78.863281 131.210938 79.191406 131.265625 C 79.355469 131.296875 79.519531 131.324219 79.683594 131.351562 C 79.683594 131.351562 79.796875 131.371094 79.796875 131.371094 C 79.796875 131.371094 79.867188 131.386719 79.867188 131.386719 C 79.867188 131.386719 80.011719 131.414062 80.011719 131.414062 C 80.394531 131.496094 80.757812 131.636719 81.09375 131.828125 C 81.765625 132.207031 82.273438 132.824219 82.597656 133.492188 C 82.753906 133.832031 82.851562 134.1875 82.914062 134.546875 C 82.921875 134.636719 82.933594 134.726562 82.945312 134.816406 C 82.953125 134.90625 82.949219 134.996094 82.957031 135.085938 C 82.957031 135.085938 82.960938 135.226562 82.960938 135.226562 C 82.960938 135.226562 82.953125 135.425781 82.953125 135.425781 C 82.945312 135.554688 82.9375 135.6875 82.933594 135.816406 C 82.910156 136.339844 82.886719 136.847656 82.867188 137.335938 C 82.851562 137.507812 82.847656 137.683594 82.832031 137.851562 C 82.792969 138.011719 82.785156 138.183594 82.738281 138.34375 C 82.421875 139.632812 81.554688 140.625 80.667969 141.179688 C 79.78125 141.761719 78.902344 141.960938 78.28125 142.09375 C 78.125 142.121094 77.976562 142.164062 77.851562 142.183594 C 77.726562 142.207031 77.617188 142.230469 77.527344 142.261719 C 77.339844 142.324219 77.226562 142.402344 77.199219 142.5 Z M 77.199219 142.5 " fill-opacity="1" fill-rule="nonzero"/><path fill="#396c84" d="M 135.363281 117.410156 C 134.886719 117.410156 134.429688 122.792969 134.015625 132.527344 C 133.601562 142.257812 133.230469 156.34375 132.917969 173.746094 C 132.84375 178.097656 132.769531 182.65625 132.691406 187.40625 C 132.660156 189.78125 132.625 192.203125 132.589844 194.671875 C 132.574219 195.90625 132.558594 197.152344 132.539062 198.40625 C 132.53125 199.035156 132.523438 199.667969 132.515625 200.300781 C 132.511719 200.703125 132.507812 201.105469 132.503906 201.507812 C 132.503906 201.507812 132.5 202.382812 132.5 202.382812 C 132.5 202.382812 132.496094 202.820312 132.496094 202.820312 C 132.496094 202.820312 132.519531 203.25 132.519531 203.25 C 132.523438 203.542969 132.570312 203.804688 132.621094 204.070312 C 132.621094 204.070312 132.660156 204.269531 132.660156 204.269531 C 132.660156 204.269531 132.710938 204.453125 132.710938 204.453125 C 132.742188 204.578125 132.785156 204.695312 132.828125 204.8125 C 132.898438 205.054688 133.015625 205.277344 133.125 205.507812 C 133.253906 205.726562 133.378906 205.949219 133.539062 206.15625 C 134.148438 206.988281 135.042969 207.640625 136.042969 207.96875 C 136.171875 208.003906 136.292969 208.054688 136.421875 208.082031 C 136.421875 208.082031 136.808594 208.164062 136.808594 208.164062 C 137.066406 208.199219 137.328125 208.234375 137.589844 208.230469 C 138.109375 208.238281 138.621094 208.175781 139.121094 208.023438 C 139.632812 207.867188 140.167969 207.644531 140.6875 207.320312 C 141.195312 207.015625 141.707031 206.710938 142.214844 206.40625 C 144.488281 205.058594 146.800781 203.691406 149.144531 202.300781 C 153.832031 199.515625 158.652344 196.648438 163.597656 193.707031 C 183.363281 181.921875 205.042969 168.886719 227.75 155.113281 C 228.957031 154.382812 230.160156 153.652344 231.363281 152.921875 C 231.476562 145.050781 231.585938 137.285156 231.691406 129.644531 C 231.777344 122.632812 231.859375 115.742188 231.941406 108.984375 C 232.007812 102.226562 232.074219 95.609375 232.136719 89.148438 C 232.195312 82.1875 232.25 75.398438 232.304688 68.804688 C 232.3125 67.84375 232.058594 67.035156 231.757812 66.457031 C 231.691406 66.292969 231.601562 66.160156 231.511719 66.011719 C 231.417969 65.863281 231.308594 65.71875 231.191406 65.574219 C 230.957031 65.289062 230.667969 65.019531 230.347656 64.789062 C 229.710938 64.324219 228.929688 64.039062 228.226562 63.960938 C 228.226562 63.960938 227.964844 63.941406 227.964844 63.941406 C 227.964844 63.941406 227.714844 63.933594 227.714844 63.933594 C 227.550781 63.933594 227.375 63.957031 227.207031 63.964844 C 227.042969 63.96875 226.847656 64.019531 226.660156 64.054688 C 226.566406 64.074219 226.476562 64.085938 226.378906 64.113281 C 226.378906 64.113281 226.082031 64.210938 226.082031 64.210938 C 226.082031 64.210938 225.78125 64.308594 225.78125 64.308594 C 225.78125 64.308594 225.476562 64.457031 225.476562 64.457031 C 225.375 64.503906 225.273438 64.550781 225.171875 64.605469 C 225.171875 64.605469 224.863281 64.773438 224.863281 64.773438 C 224.457031 65 224.050781 65.226562 223.644531 65.453125 C 223.042969 65.789062 222.441406 66.125 221.839844 66.460938 C 220.984375 66.941406 220.136719 67.417969 219.289062 67.890625 C 215.910156 69.796875 212.605469 71.660156 209.378906 73.476562 C 202.9375 77.132812 196.808594 80.609375 191.035156 83.882812 C 179.5 90.460938 169.414062 96.277344 161.109375 101.140625 C 144.507812 110.875 135.035156 116.808594 135.363281 117.410156 C 135.695312 118.015625 145.785156 113.207031 162.910156 104.417969 C 171.472656 100.027344 181.792969 94.636719 193.53125 88.433594 C 199.394531 85.320312 205.617188 82.015625 212.160156 78.539062 C 215.425781 76.792969 218.769531 75.003906 222.191406 73.175781 C 223.046875 72.714844 223.902344 72.257812 224.769531 71.792969 C 224.769531 71.792969 225.417969 71.445312 225.417969 71.445312 C 225.492188 71.40625 225.476562 71.414062 225.484375 71.410156 C 225.484375 71.410156 225.503906 71.398438 225.503906 71.398438 C 225.503906 71.398438 225.546875 71.382812 225.546875 71.382812 C 225.546875 71.382812 225.695312 71.316406 225.695312 71.316406 C 225.746094 71.296875 225.789062 71.269531 225.839844 71.257812 C 225.890625 71.25 225.945312 71.273438 225.984375 71.3125 C 226.066406 71.398438 226.011719 71.527344 226.011719 71.625 C 226.011719 71.625 226 71.738281 226 71.738281 C 226 71.738281 226 71.765625 226 71.765625 C 226 71.765625 225.996094 71.777344 225.996094 71.777344 C 225.996094 71.777344 225.992188 71.894531 225.992188 71.894531 C 225.992188 71.894531 225.980469 72.472656 225.980469 72.472656 C 225.960938 73.242188 225.945312 74.015625 225.925781 74.792969 C 225.890625 76.34375 225.855469 77.90625 225.816406 79.480469 C 225.75 82.628906 225.675781 85.820312 225.605469 89.046875 C 225.472656 95.507812 225.339844 102.125 225.199219 108.882812 C 225.074219 115.636719 224.949219 122.53125 224.816406 129.539062 C 224.710938 135.921875 224.605469 142.410156 224.496094 148.984375 C 224.496094 148.984375 224.15625 149.191406 224.15625 149.191406 C 201.449219 162.960938 179.871094 176.164062 160.285156 188.25 C 155.394531 191.273438 150.621094 194.226562 145.984375 197.09375 C 143.671875 198.53125 141.390625 199.945312 139.144531 201.339844 C 139.144531 201.339844 139.089844 201.375 139.089844 201.375 C 139.089844 201.375 139.082031 201.378906 139.082031 201.378906 C 139.082031 201.378906 139.066406 201.390625 139.066406 201.390625 C 139.066406 201.390625 139.039062 201.410156 139.039062 201.410156 C 139.039062 201.410156 138.976562 201.453125 138.976562 201.453125 C 138.976562 201.453125 138.851562 201.542969 138.851562 201.542969 C 138.773438 201.605469 138.664062 201.640625 138.558594 201.625 C 138.457031 201.605469 138.359375 201.550781 138.304688 201.460938 C 138.242188 201.375 138.246094 201.265625 138.238281 201.160156 C 138.238281 201.160156 138.226562 201 138.226562 201 C 138.226562 201 138.222656 200.957031 138.222656 200.957031 C 138.222656 200.957031 138.222656 200.945312 138.222656 200.945312 C 138.222656 200.945312 138.222656 200.894531 138.222656 200.894531 C 138.222656 200.894531 138.21875 200.777344 138.21875 200.777344 C 138.21875 200.777344 138.214844 200.300781 138.214844 200.300781 C 138.207031 199.667969 138.199219 199.035156 138.191406 198.40625 C 138.171875 197.152344 138.15625 195.90625 138.140625 194.671875 C 138.105469 192.203125 138.070312 189.78125 138.039062 187.40625 C 137.960938 182.65625 137.886719 178.097656 137.8125 173.746094 C 137.5 156.34375 137.128906 142.257812 136.714844 132.527344 C 136.300781 122.792969 135.84375 117.410156 135.363281 117.410156 Z M 135.363281 117.410156 " fill-opacity="1" fill-rule="nonzero"/><path stroke-linecap="round" transform="matrix(0.248968, 0, 0, 0.248968, 163.548152, 174.33306)" fill-opacity="1" fill="#396c84" fill-rule="nonzero" stroke-linejoin="round" d="M -367.145503 76.279478 C -367.145503 76.279478 -99.886139 157.395534 -60.661741 152.782745 C 21.583979 143.102163 292.059743 -56.2833 321.446662 -74.530491 C 371.622513 -105.674663 409.105349 -127.593257 273.012375 -152.979288 C 273.012375 -152.979288 246.480991 -84.054175 246.480991 -84.054175 C 246.480991 -84.054175 -99.666483 125.04325 -99.666483 125.04325 C -99.666483 125.04325 -196.440919 114.342834 -196.440919 114.342834 C -196.440919 114.342834 -367.145503 76.279478 -367.145503 76.279478 Z M -367.145503 76.279478 " stroke="#396c84" stroke-width="0.1" stroke-opacity="1" stroke-miterlimit="4"/><g clip-path="url(#5e6d8fe315)"><g transform="matrix(1, 0, 0, 1, 61, 125)"><g clip-path="url(#6fec911d6d)"><g clip-path="url(#254c353698)"><path fill="#396c84" d="M 0.261719 0.0390625 L 9.363281 0.0390625 L 9.363281 9.140625 L 0.261719 9.140625 Z M 0.261719 0.0390625 " fill-opacity="1" fill-rule="nonzero"/></g></g></g></g></svg>