<svg xmlns="http://www.w3.org/2000/svg" xmlns:xlink="http://www.w3.org/1999/xlink" width="32" zoomAndPan="magnify" viewBox="0 0 24 23.999999" height="32" preserveAspectRatio="xMidYMid meet" version="1.0"><defs><clipPath id="d9f4e266f4"><path d="M 2.6875 11.878906 L 9.261719 11.878906 L 9.261719 18.457031 L 2.6875 18.457031 Z M 2.6875 11.878906 " clip-rule="nonzero"/></clipPath><clipPath id="e8a004be3b"><path d="M 5.972656 11.878906 C 4.15625 11.878906 2.6875 13.351562 2.6875 15.167969 C 2.6875 16.984375 4.15625 18.457031 5.972656 18.457031 C 7.789062 18.457031 9.261719 16.984375 9.261719 15.167969 C 9.261719 13.351562 7.789062 11.878906 5.972656 11.878906 Z M 5.972656 11.878906 " clip-rule="nonzero"/></clipPath><clipPath id="7e681d84d7"><path d="M 0.6875 0.878906 L 7.261719 0.878906 L 7.261719 7.457031 L 0.6875 7.457031 Z M 0.6875 0.878906 " clip-rule="nonzero"/></clipPath><clipPath id="8483a36e3d"><path d="M 3.972656 0.878906 C 2.15625 0.878906 0.6875 2.351562 0.6875 4.167969 C 0.6875 5.984375 2.15625 7.457031 3.972656 7.457031 C 5.789062 7.457031 7.261719 5.984375 7.261719 4.167969 C 7.261719 2.351562 5.789062 0.878906 3.972656 0.878906 Z M 3.972656 0.878906 " clip-rule="nonzero"/></clipPath><clipPath id="6d2ef1bd9d"><rect x="0" width="8" y="0" height="8"/></clipPath></defs><path fill="#396c84" d="M 23.753906 11.875 C 23.753906 12.65625 23.679688 13.429688 23.527344 14.195312 C 23.375 14.957031 23.148438 15.703125 22.851562 16.421875 C 22.550781 17.140625 22.183594 17.828125 21.753906 18.476562 C 21.320312 19.125 20.828125 19.722656 20.273438 20.273438 C 19.722656 20.828125 19.125 21.320312 18.476562 21.753906 C 17.828125 22.183594 17.140625 22.550781 16.421875 22.851562 C 15.703125 23.148438 14.957031 23.375 14.195312 23.527344 C 13.429688 23.679688 12.65625 23.753906 11.875 23.753906 C 11.097656 23.753906 10.324219 23.679688 9.558594 23.527344 C 8.796875 23.375 8.050781 23.148438 7.332031 22.851562 C 6.613281 22.550781 5.925781 22.183594 5.277344 21.753906 C 4.628906 21.320312 4.03125 20.828125 3.480469 20.273438 C 2.925781 19.722656 2.433594 19.125 2 18.476562 C 1.570312 17.828125 1.203125 17.140625 0.902344 16.421875 C 0.605469 15.703125 0.378906 14.957031 0.226562 14.195312 C 0.0742188 13.429688 0 12.65625 0 11.875 C 0 11.097656 0.0742188 10.324219 0.226562 9.558594 C 0.378906 8.796875 0.605469 8.050781 0.902344 7.332031 C 1.203125 6.613281 1.570312 5.925781 2 5.277344 C 2.433594 4.628906 2.925781 4.03125 3.480469 3.480469 C 4.03125 2.925781 4.628906 2.433594 5.277344 2 C 5.925781 1.570312 6.613281 1.203125 7.332031 0.902344 C 8.050781 0.605469 8.796875 0.378906 9.558594 0.226562 C 10.324219 0.0742188 11.097656 0 11.875 0 C 12.65625 0 13.429688 0.0742188 14.195312 0.226562 C 14.957031 0.378906 15.703125 0.605469 16.421875 0.902344 C 17.140625 1.203125 17.828125 1.570312 18.476562 2 C 19.125 2.433594 19.722656 2.925781 20.273438 3.480469 C 20.828125 4.03125 21.320312 4.628906 21.753906 5.277344 C 22.183594 5.925781 22.550781 6.613281 22.851562 7.332031 C 23.148438 8.050781 23.375 8.796875 23.527344 9.558594 C 23.679688 10.324219 23.753906 11.097656 23.753906 11.875 Z M 23.753906 11.875 " fill-opacity="1" fill-rule="nonzero"/><path fill="#f4f6f9" d="M 11.027344 19.527344 L 11.027344 11.484375 L 9.894531 11.484375 L 9.894531 9.035156 L 14.164062 9.035156 L 14.164062 19.527344 L 11.027344 19.527344 M 14.402344 5.398438 C 14.402344 5.664062 14.351562 5.917969 14.253906 6.164062 C 14.15625 6.402344 14.015625 6.609375 13.835938 6.789062 C 13.664062 6.972656 13.460938 7.121094 13.230469 7.226562 C 12.992188 7.320312 12.742188 7.371094 12.476562 7.371094 C 12.199219 7.371094 11.941406 7.324219 11.703125 7.226562 C 11.480469 7.113281 11.285156 6.96875 11.117188 6.789062 C 10.949219 6.609375 10.816406 6.402344 10.71875 6.164062 C 10.621094 5.917969 10.574219 5.664062 10.574219 5.398438 C 10.5625 4.871094 10.746094 4.417969 11.117188 4.046875 C 11.480469 3.65625 11.9375 3.464844 12.496094 3.464844 C 12.761719 3.464844 13.007812 3.519531 13.230469 3.628906 C 13.46875 3.726562 13.667969 3.863281 13.835938 4.046875 C 14.015625 4.226562 14.15625 4.433594 14.253906 4.667969 C 14.351562 4.890625 14.402344 5.132812 14.402344 5.398438 " fill-opacity="1" fill-rule="nonzero"/><g clip-path="url(#d9f4e266f4)"><g clip-path="url(#e8a004be3b)"><g transform="matrix(1, 0, 0, 1, 2, 11)"><g clip-path="url(#6d2ef1bd9d)"><g clip-path="url(#7e681d84d7)"><g clip-path="url(#8483a36e3d)"><path fill="#396c84" d="M 0.6875 0.878906 L 7.261719 0.878906 L 7.261719 7.457031 L 0.6875 7.457031 Z M 0.6875 0.878906 " fill-opacity="1" fill-rule="nonzero"/></g></g></g></g></g></g></svg>