<svg xmlns="http://www.w3.org/2000/svg" xmlns:xlink="http://www.w3.org/1999/xlink" width="166" zoomAndPan="magnify" viewBox="0 0 124.5 123.000003" height="164" preserveAspectRatio="xMidYMid meet" version="1.0"><defs><g/><clipPath id="0bb6d34493"><path d="M 5.960938 0 L 118.296875 0 L 118.296875 74.394531 L 5.960938 74.394531 Z M 5.960938 0 " clip-rule="nonzero"/></clipPath></defs><g fill="#303144" fill-opacity="1"><g transform="translate(20.364794, 96.721066)"><g><path d="M 8.9375 -7.140625 L 8.9375 0 L 6.53125 0 L 6.53125 -7.140625 L 3.703125 -7.140625 L 3.703125 0 L 0.4375 0 L 0.4375 -2.171875 L 1.296875 -2.171875 L 1.296875 -5.34375 L 1.796875 -7.140625 L 0.96875 -7.140625 L 0.96875 -9.3125 L 7.6875 -9.3125 C 8.050781 -9.3125 8.347656 -9.195312 8.578125 -8.96875 C 8.816406 -8.75 8.9375 -8.445312 8.9375 -8.0625 Z M 8.9375 -7.140625 "/></g></g></g><g fill="#303144" fill-opacity="1"><g transform="translate(30.071571, 96.721066)"><g><path d="M 1.046875 -9.3125 L 3.1875 -9.3125 C 3.550781 -9.3125 3.847656 -9.195312 4.078125 -8.96875 C 4.316406 -8.75 4.4375 -8.445312 4.4375 -8.0625 L 4.4375 0 L 0.390625 0 L 0.390625 -2.171875 L 2.03125 -2.171875 L 2.03125 -7.140625 L 1.046875 -7.140625 Z M 1.046875 -9.3125 "/></g></g></g><g fill="#303144" fill-opacity="1"><g transform="translate(35.281594, 96.721066)"><g><path d="M 0.515625 -9.3125 L 6.953125 -9.3125 C 7.304688 -9.3125 7.597656 -9.195312 7.828125 -8.96875 C 8.066406 -8.75 8.1875 -8.445312 8.1875 -8.0625 L 8.1875 -2.171875 L 8.890625 -2.171875 L 8.890625 0 L 0.515625 0 L 0.515625 -2.171875 L 5.78125 -2.171875 L 5.78125 -7.140625 L 0.515625 -7.140625 Z M 0.515625 -9.3125 "/></g></g></g><g fill="#303144" fill-opacity="1"><g transform="translate(44.941851, 96.721066)"><g><path d="M 0.625 -5.34375 L 3.046875 -5.34375 L 3.03125 0 L 0.625 0 Z M 0.625 -9.3125 L 7.34375 -9.3125 C 7.707031 -9.3125 8.003906 -9.195312 8.234375 -8.96875 C 8.460938 -8.75 8.578125 -8.445312 8.578125 -8.0625 L 8.578125 0 L 6.171875 0 L 6.171875 -7.140625 L 0.625 -7.140625 Z M 0.625 -9.3125 "/></g></g></g><g fill="#303144" fill-opacity="1"><g transform="translate(54.291989, 96.721066)"><g/></g></g><g fill="#303144" fill-opacity="1"><g transform="translate(61.285209, 96.721066)"><g><path d="M 8.9375 -7.140625 L 8.9375 0 L 6.53125 0 L 6.53125 -7.140625 L 3.703125 -7.140625 L 3.703125 0 L 0.4375 0 L 0.4375 -2.171875 L 1.296875 -2.171875 L 1.296875 -5.34375 L 1.796875 -7.140625 L 0.96875 -7.140625 L 0.96875 -9.3125 L 7.6875 -9.3125 C 8.050781 -9.3125 8.347656 -9.195312 8.578125 -8.96875 C 8.816406 -8.75 8.9375 -8.445312 8.9375 -8.0625 Z M 8.9375 -7.140625 "/></g></g></g><g fill="#303144" fill-opacity="1"><g transform="translate(70.991986, 96.721066)"><g><path d="M 8.4375 -7.140625 L 7.828125 -7.140625 L 7.828125 0 L 5.421875 0 L 5.421875 -7.140625 L 0.21875 -7.140625 L 0.21875 -9.3125 L 7.203125 -9.3125 C 7.554688 -9.3125 7.847656 -9.195312 8.078125 -8.96875 C 8.316406 -8.75 8.4375 -8.445312 8.4375 -8.0625 Z M 8.4375 -7.140625 "/></g></g></g><g fill="#303144" fill-opacity="1"><g transform="translate(79.876938, 96.721066)"><g><path d="M 3.234375 -8.84375 C 3.785156 -9.15625 4.410156 -9.3125 5.109375 -9.3125 C 6.222656 -9.3125 7.171875 -8.914062 7.953125 -8.125 C 8.742188 -7.34375 9.140625 -6.394531 9.140625 -5.28125 L 9.140625 0 L 4.609375 0 L 4.609375 -2.171875 L 6.734375 -2.171875 L 6.734375 -5.484375 C 6.734375 -5.941406 6.570312 -6.332031 6.25 -6.65625 C 5.9375 -6.976562 5.554688 -7.140625 5.109375 -7.140625 C 4.660156 -7.140625 4.273438 -6.976562 3.953125 -6.65625 C 3.628906 -6.332031 3.46875 -5.941406 3.46875 -5.484375 L 3.46875 0 L 1.0625 0 L 1.0625 -7.140625 L 0.515625 -7.140625 L 0.515625 -9.3125 L 2.234375 -9.3125 C 2.703125 -9.3125 3.035156 -9.15625 3.234375 -8.84375 Z M 3.234375 -8.84375 "/></g></g></g><g fill="#303144" fill-opacity="1"><g transform="translate(89.785289, 96.721066)"><g><path d="M 0.46875 -9.3125 L 2.625 -9.3125 C 2.988281 -9.3125 3.285156 -9.195312 3.515625 -8.96875 C 3.742188 -8.75 3.859375 -8.445312 3.859375 -8.0625 L 3.859375 0 L 1.453125 0 L 1.453125 -7.140625 L 0.46875 -7.140625 Z M 0.46875 -9.3125 "/></g></g></g><g fill="#303144" fill-opacity="1"><g transform="translate(94.421591, 96.721066)"><g><path d="M 0.265625 -10.734375 L 2.671875 -10.734375 L 2.671875 -9.3125 L 6.984375 -9.3125 C 7.335938 -9.3125 7.628906 -9.195312 7.859375 -8.96875 C 8.097656 -8.75 8.21875 -8.445312 8.21875 -8.0625 L 8.21875 -3.875 C 8.21875 -2.644531 7.882812 -1.691406 7.21875 -1.015625 C 6.550781 -0.335938 5.59375 0 4.34375 0 L 4.03125 0 L 4.03125 -2.171875 L 4.34375 -2.171875 C 5.320312 -2.171875 5.8125 -2.660156 5.8125 -3.640625 L 5.8125 -7.140625 L 0.265625 -7.140625 Z M 0.265625 -10.734375 "/></g></g></g><g fill="#303144" fill-opacity="1"><g transform="translate(20.515909, 112.34405)"><g><path d="M 0.203125 -9.3125 L 6.921875 -9.3125 C 7.273438 -9.3125 7.566406 -9.195312 7.796875 -8.96875 C 8.035156 -8.75 8.15625 -8.445312 8.15625 -8.0625 L 8.15625 0 L 5.75 0 L 5.75 -7.140625 L 0.203125 -7.140625 Z M 0.203125 -9.3125 "/></g></g></g><g fill="#303144" fill-opacity="1"><g transform="translate(29.447381, 112.34405)"><g><path d="M 0.515625 -9.3125 L 7.234375 -9.3125 C 7.585938 -9.3125 7.878906 -9.195312 8.109375 -8.96875 C 8.347656 -8.75 8.46875 -8.445312 8.46875 -8.0625 L 8.46875 -2.953125 C 8.46875 -0.984375 7.484375 0 5.515625 0 L 0.515625 0 L 0.515625 -2.171875 L 5.515625 -2.171875 C 5.671875 -2.171875 5.800781 -2.222656 5.90625 -2.328125 C 6.007812 -2.429688 6.0625 -2.5625 6.0625 -2.71875 L 6.0625 -7.140625 L 0.515625 -7.140625 Z M 0.515625 -9.3125 "/></g></g></g><g fill="#303144" fill-opacity="1"><g transform="translate(38.487399, 112.34405)"><g><path d="M 11.953125 -2.171875 C 11.953125 -1.515625 11.765625 -0.988281 11.390625 -0.59375 C 11.015625 -0.195312 10.476562 0 9.78125 0 L 0.8125 0 L 0.8125 -5.34375 L 1.296875 -7.140625 L 0.5625 -7.140625 L 0.5625 -9.3125 L 2.578125 -9.3125 C 2.953125 -9.3125 3.25 -9.195312 3.46875 -8.96875 C 3.695312 -8.75 3.8125 -8.445312 3.8125 -8.0625 L 3.8125 -7.140625 L 3.203125 -7.140625 L 3.203125 -2.171875 L 5.1875 -2.171875 L 5.1875 -7.140625 L 4.59375 -7.140625 L 4.59375 -9.3125 L 6.34375 -9.3125 C 6.71875 -9.3125 7.015625 -9.195312 7.234375 -8.96875 C 7.460938 -8.75 7.578125 -8.445312 7.578125 -8.0625 L 7.578125 -2.171875 L 9.015625 -2.171875 C 9.179688 -2.171875 9.3125 -2.21875 9.40625 -2.3125 C 9.5 -2.414062 9.546875 -2.550781 9.546875 -2.71875 L 9.546875 -7.140625 L 8.5625 -7.140625 L 8.5625 -9.3125 L 10.71875 -9.3125 C 11.09375 -9.3125 11.390625 -9.195312 11.609375 -8.96875 C 11.835938 -8.75 11.953125 -8.445312 11.953125 -8.0625 Z M 11.953125 -2.171875 "/></g></g></g><g fill="#303144" fill-opacity="1"><g transform="translate(51.031774, 112.34405)"><g><path d="M 0.625 -5.34375 L 3.046875 -5.34375 L 3.03125 0 L 0.625 0 Z M 0.625 -9.3125 L 7.34375 -9.3125 C 7.707031 -9.3125 8.003906 -9.195312 8.234375 -8.96875 C 8.460938 -8.75 8.578125 -8.445312 8.578125 -8.0625 L 8.578125 0 L 6.171875 0 L 6.171875 -7.140625 L 0.625 -7.140625 Z M 0.625 -9.3125 "/></g></g></g><g fill="#303144" fill-opacity="1"><g transform="translate(60.381912, 112.34405)"><g/></g></g><g fill="#303144" fill-opacity="1"><g transform="translate(67.375131, 112.34405)"><g><path d="M 11.953125 -2.171875 C 11.953125 -1.515625 11.765625 -0.988281 11.390625 -0.59375 C 11.015625 -0.195312 10.476562 0 9.78125 0 L 0.8125 0 L 0.8125 -5.34375 L 1.296875 -7.140625 L 0.5625 -7.140625 L 0.5625 -9.3125 L 2.578125 -9.3125 C 2.953125 -9.3125 3.25 -9.195312 3.46875 -8.96875 C 3.695312 -8.75 3.8125 -8.445312 3.8125 -8.0625 L 3.8125 -7.140625 L 3.203125 -7.140625 L 3.203125 -2.171875 L 5.1875 -2.171875 L 5.1875 -7.140625 L 4.59375 -7.140625 L 4.59375 -9.3125 L 6.34375 -9.3125 C 6.71875 -9.3125 7.015625 -9.195312 7.234375 -8.96875 C 7.460938 -8.75 7.578125 -8.445312 7.578125 -8.0625 L 7.578125 -2.171875 L 9.015625 -2.171875 C 9.179688 -2.171875 9.3125 -2.21875 9.40625 -2.3125 C 9.5 -2.414062 9.546875 -2.550781 9.546875 -2.71875 L 9.546875 -7.140625 L 8.5625 -7.140625 L 8.5625 -9.3125 L 10.71875 -9.3125 C 11.09375 -9.3125 11.390625 -9.195312 11.609375 -8.96875 C 11.835938 -8.75 11.953125 -8.445312 11.953125 -8.0625 Z M 11.953125 -2.171875 "/></g></g></g><g fill="#303144" fill-opacity="1"><g transform="translate(79.919506, 112.34405)"><g><path d="M 0.46875 -9.3125 L 2.625 -9.3125 C 2.988281 -9.3125 3.285156 -9.195312 3.515625 -8.96875 C 3.742188 -8.75 3.859375 -8.445312 3.859375 -8.0625 L 3.859375 0 L 1.453125 0 L 1.453125 -7.140625 L 0.46875 -7.140625 Z M 0.46875 -9.3125 "/></g></g></g><g fill="#303144" fill-opacity="1"><g transform="translate(84.555809, 112.34405)"><g><path d="M 0.265625 -10.734375 L 2.671875 -10.734375 L 2.671875 -9.3125 L 6.984375 -9.3125 C 7.335938 -9.3125 7.628906 -9.195312 7.859375 -8.96875 C 8.097656 -8.75 8.21875 -8.445312 8.21875 -8.0625 L 8.21875 -3.875 C 8.21875 -2.644531 7.882812 -1.691406 7.21875 -1.015625 C 6.550781 -0.335938 5.59375 0 4.34375 0 L 4.03125 0 L 4.03125 -2.171875 L 4.34375 -2.171875 C 5.320312 -2.171875 5.8125 -2.660156 5.8125 -3.640625 L 5.8125 -7.140625 L 0.265625 -7.140625 Z M 0.265625 -10.734375 "/></g></g></g><g fill="#303144" fill-opacity="1"><g transform="translate(93.31672, 112.34405)"><g><path d="M 8.9375 -7.140625 L 8.9375 0 L 6.53125 0 L 6.53125 -7.140625 L 3.703125 -7.140625 L 3.703125 0 L 0.4375 0 L 0.4375 -2.171875 L 1.296875 -2.171875 L 1.296875 -5.34375 L 1.796875 -7.140625 L 0.96875 -7.140625 L 0.96875 -9.3125 L 7.6875 -9.3125 C 8.050781 -9.3125 8.347656 -9.195312 8.578125 -8.96875 C 8.816406 -8.75 8.9375 -8.445312 8.9375 -8.0625 Z M 8.9375 -7.140625 "/></g></g></g><g clip-path="url(#0bb6d34493)"><path fill="#303144" d="M 90.1875 58.285156 C 90.3125 58.277344 90.4375 58.277344 90.566406 58.277344 C 93.128906 58.316406 95.816406 59.042969 98.285156 59.664062 C 98.800781 59.792969 99.910156 59.945312 100.277344 60.324219 C 100.34375 60.503906 100.261719 60.65625 100.199219 60.828125 C 100.160156 60.828125 100.121094 60.835938 100.082031 60.835938 C 99.382812 60.871094 98.484375 60.464844 97.808594 60.289062 C 97.03125 60.089844 96.246094 59.914062 95.464844 59.738281 C 94.144531 59.445312 92.824219 59.226562 91.488281 59.042969 C 91.101562 58.992188 90.449219 59 90.167969 58.726562 C 90.109375 58.523438 90.132812 58.484375 90.1875 58.285156 Z M 88.074219 60.78125 C 90.21875 60.695312 92.566406 61.152344 94.648438 61.652344 C 95.367188 61.828125 98.617188 62.609375 98.925781 63.109375 C 98.953125 63.304688 98.886719 63.414062 98.796875 63.582031 C 98.015625 63.488281 97.191406 63.097656 96.433594 62.871094 C 95.195312 62.503906 93.945312 62.191406 92.679688 61.941406 C 91.84375 61.777344 90.984375 61.628906 90.136719 61.539062 C 89.609375 61.484375 89.066406 61.5 88.546875 61.398438 C 88.363281 61.363281 88.238281 61.3125 88.089844 61.195312 C 88.003906 61.007812 88.027344 60.984375 88.074219 60.78125 Z M 85.640625 62.953125 C 87.34375 62.867188 89.140625 63.207031 90.804688 63.535156 C 91.792969 63.734375 96.324219 64.691406 96.730469 65.296875 C 96.707031 65.484375 96.671875 65.523438 96.554688 65.675781 C 95.777344 65.582031 94.972656 65.296875 94.207031 65.105469 C 92.535156 64.6875 90.863281 64.261719 89.160156 63.984375 C 88.683594 63.90625 85.707031 63.640625 85.601562 63.589844 C 85.4375 63.503906 85.425781 63.476562 85.378906 63.3125 C 85.4375 63.132812 85.503906 63.074219 85.640625 62.953125 Z M 83.390625 65.121094 C 84.199219 65.207031 85.019531 65.21875 85.832031 65.296875 C 86.777344 65.390625 87.71875 65.574219 88.644531 65.773438 C 89.703125 66 94.851562 67.148438 95.308594 67.855469 C 95.300781 68.0625 95.242188 68.121094 95.132812 68.292969 C 94.644531 68.335938 91.574219 67.292969 90.886719 67.101562 C 89.894531 66.828125 88.894531 66.578125 87.890625 66.355469 C 87.207031 66.210938 86.492188 66.035156 85.796875 65.972656 C 85.09375 65.910156 84.335938 65.984375 83.644531 65.839844 C 83.4375 65.796875 83.351562 65.746094 83.230469 65.570312 C 83.226562 65.371094 83.285156 65.28125 83.390625 65.121094 Z M 85.492188 23.800781 C 88.058594 23.984375 116.363281 27.726562 116.703125 27.980469 C 116.855469 28.09375 116.851562 28.132812 116.875 28.308594 C 116.8125 28.492188 116.746094 28.585938 116.625 28.726562 C 113.417969 28.195312 110.179688 27.800781 106.960938 27.363281 L 92.875 25.492188 L 88.257812 24.945312 C 87.507812 24.859375 86.742188 24.8125 85.996094 24.699219 C 85.773438 24.667969 85.566406 24.625 85.375 24.503906 C 85.289062 24.375 85.21875 24.296875 85.25 24.136719 C 85.285156 23.960938 85.367188 23.902344 85.492188 23.800781 Z M 78.480469 49.449219 C 78.578125 49.449219 78.652344 49.453125 78.742188 49.503906 C 79.722656 50.039062 80.921875 50.175781 82.003906 50.433594 C 83.90625 50.890625 86.757812 51.636719 88.453125 52.582031 C 89.308594 53.058594 90.050781 53.667969 90.707031 54.390625 C 90.914062 54.621094 91.683594 55.683594 91.90625 55.726562 C 92.621094 55.855469 93.441406 55.8125 94.171875 55.871094 C 95.300781 55.957031 96.425781 56.125 97.539062 56.289062 C 99.246094 56.535156 100.941406 56.886719 102.640625 57.183594 C 103.742188 57.375 104.910156 57.484375 105.984375 57.789062 C 106.183594 57.84375 106.261719 57.859375 106.382812 58.023438 C 106.394531 58.144531 106.394531 58.210938 106.34375 58.320312 C 106.238281 58.554688 105.058594 59.859375 104.785156 60.199219 C 102.808594 62.644531 100.808594 65.066406 98.789062 67.476562 C 98.03125 68.398438 97.320312 69.375 96.542969 70.277344 C 96.386719 70.457031 96.210938 70.664062 95.976562 70.738281 C 95.878906 70.769531 95.859375 70.734375 95.769531 70.695312 L 95.726562 70.550781 C 95.777344 70.277344 95.898438 70.066406 96.058594 69.839844 C 97.3125 68.0625 98.824219 66.414062 100.199219 64.730469 C 101.335938 63.34375 102.507812 61.988281 103.652344 60.609375 C 104.230469 59.910156 104.753906 59.164062 105.375 58.503906 L 105.453125 58.421875 C 104.167969 58.132812 102.828125 57.980469 101.527344 57.753906 C 99.464844 57.398438 97.394531 56.992188 95.316406 56.726562 C 94.183594 56.582031 92.992188 56.628906 91.875 56.414062 C 91.726562 56.273438 91.722656 56.148438 91.671875 55.957031 C 91.097656 56.246094 89.773438 57.777344 89.238281 58.308594 L 82.234375 65.34375 C 81.023438 66.570312 79.71875 67.722656 78.585938 69.023438 C 79.699219 68.9375 80.808594 68.78125 81.921875 68.699219 C 84.304688 68.523438 86.578125 68.722656 88.902344 69.285156 C 91.679688 70.011719 93.261719 70.933594 95.738281 72.246094 C 96.292969 71.695312 96.792969 71.0625 97.296875 70.46875 C 98.292969 69.285156 99.28125 68.089844 100.261719 66.890625 C 101.523438 65.371094 102.773438 63.84375 104.007812 62.300781 C 104.84375 61.25 105.761719 60.183594 106.367188 58.980469 C 106.976562 58.949219 107.941406 58.859375 108.480469 59.140625 C 108.554688 59.25 108.601562 59.289062 108.578125 59.429688 C 108.535156 59.722656 108.136719 60.179688 107.957031 60.417969 C 106.960938 61.746094 105.867188 63.011719 104.824219 64.300781 L 100.269531 69.941406 C 99.289062 71.136719 97.46875 73.59375 96.386719 74.4375 C 94.882812 73.878906 93.320312 73.4375 91.789062 72.957031 C 89.0625 72.105469 84.921875 70.78125 82.148438 70.53125 C 80.714844 70.402344 79.199219 70.582031 77.761719 70.652344 C 75.789062 68.835938 73.128906 67.527344 70.71875 66.390625 C 69.761719 65.941406 64.152344 63.648438 63.863281 63.328125 C 63.800781 63.191406 63.753906 63 63.804688 62.847656 C 63.859375 62.695312 63.933594 62.628906 64.089844 62.585938 C 64.242188 62.539062 64.277344 62.5625 64.417969 62.460938 C 65.316406 61.796875 66.09375 60.84375 66.925781 60.089844 L 74.816406 52.800781 C 76.023438 51.6875 77.171875 50.449219 78.480469 49.449219 Z M 73.414062 55.128906 L 68.878906 59.316406 C 67.726562 60.371094 66.550781 61.394531 65.472656 62.527344 C 70.082031 63.632812 74.289062 65.394531 77.863281 68.582031 C 78.183594 68.582031 79.425781 67.207031 79.742188 66.890625 L 85.210938 61.347656 C 87.101562 59.457031 89.027344 57.609375 90.894531 55.695312 C 88.4375 52.035156 82.675781 51.40625 78.703125 50.296875 C 76.804688 51.695312 75.152344 53.53125 73.414062 55.128906 Z M 77.121094 61.367188 C 77.140625 61.367188 77.160156 61.371094 77.175781 61.375 C 77.875 61.511719 80.78125 62.742188 81.066406 63.300781 C 81.164062 63.496094 81.101562 63.570312 81.03125 63.757812 C 80.941406 63.742188 80.851562 63.730469 80.761719 63.695312 C 80.296875 63.519531 79.855469 63.246094 79.402344 63.039062 C 78.683594 62.714844 77.878906 62.445312 77.210938 62.03125 C 77.09375 61.957031 77.03125 61.894531 76.972656 61.765625 C 76.960938 61.582031 77.023438 61.511719 77.121094 61.367188 Z M 73.832031 56.277344 C 75.328125 56.492188 82.125 59.671875 83.15625 60.769531 C 83.210938 60.960938 83.175781 61.035156 83.132812 61.226562 C 83.023438 61.238281 82.910156 61.25 82.800781 61.238281 C 82.398438 61.195312 81.351562 60.421875 80.945312 60.191406 C 79.433594 59.320312 77.867188 58.515625 76.238281 57.882812 C 75.691406 57.671875 74.109375 57.234375 73.765625 56.824219 C 73.707031 56.613281 73.765625 56.476562 73.832031 56.277344 Z M 77.9375 52.457031 C 78.070312 52.453125 78.195312 52.460938 78.324219 52.476562 C 78.796875 52.542969 79.300781 52.726562 79.757812 52.867188 C 80.359375 53.039062 80.953125 53.234375 81.542969 53.445312 C 82.128906 53.65625 82.710938 53.886719 83.285156 54.132812 C 83.859375 54.382812 84.421875 54.648438 84.980469 54.933594 C 85.539062 55.214844 86.085938 55.515625 86.625 55.832031 C 86.953125 56.03125 87.539062 56.328125 87.730469 56.667969 C 87.816406 56.820312 87.761719 56.894531 87.703125 57.042969 C 87.625 57.054688 87.609375 57.058594 87.523438 57.058594 C 86.992188 57.066406 85.503906 56.027344 84.933594 55.726562 C 83.605469 55.023438 82.101562 54.398438 80.671875 53.921875 C 80.070312 53.722656 78.285156 53.34375 77.871094 52.957031 C 77.808594 52.773438 77.878906 52.628906 77.9375 52.457031 Z M 75.808594 54.449219 C 75.9375 54.464844 76.066406 54.480469 76.195312 54.511719 C 78.976562 55.148438 81.753906 56.488281 84.253906 57.835938 C 84.742188 58.097656 85.5625 58.429688 85.859375 58.910156 C 85.867188 59.105469 85.820312 59.160156 85.730469 59.328125 C 84.960938 59.246094 82.914062 57.960938 82.136719 57.566406 C 81.546875 57.265625 80.9375 57.003906 80.328125 56.742188 C 79.488281 56.378906 78.597656 55.992188 77.730469 55.703125 C 77.1875 55.523438 76.609375 55.433594 76.082031 55.207031 C 75.886719 55.121094 75.753906 55.042969 75.667969 54.835938 C 75.671875 54.65625 75.707031 54.59375 75.808594 54.449219 Z M 96.730469 33.753906 C 97.585938 33.675781 104.539062 35.933594 105.476562 36.441406 C 106.167969 36.820312 106.582031 37.46875 106.804688 38.207031 C 108.96875 38.339844 111.660156 39.242188 113.617188 40.203125 C 114.339844 40.554688 115.015625 40.984375 115.707031 41.390625 C 116.140625 41.644531 116.820312 41.941406 117.15625 42.308594 C 117.257812 42.417969 117.292969 42.582031 117.273438 42.730469 C 117.222656 43.128906 116.933594 43.347656 116.636719 43.578125 C 116.65625 43.679688 116.671875 43.785156 116.695312 43.886719 C 116.710938 43.980469 116.78125 44.433594 116.882812 44.46875 C 117.21875 44.585938 117.667969 44.199219 118.15625 44.527344 C 118.257812 44.691406 118.25 44.765625 118.234375 44.953125 C 118.015625 45.25 117.75 45.507812 117.472656 45.75 C 115.0625 47.875 112.460938 49.84375 109.953125 51.847656 C 109.050781 52.570312 107.210938 54.210938 106.332031 54.648438 C 105.3125 54.277344 104.328125 53.824219 103.324219 53.414062 C 101.835938 52.8125 100.335938 52.242188 98.863281 51.609375 C 97.53125 51.042969 96.199219 50.355469 94.816406 49.929688 C 94.144531 49.726562 93.375 49.722656 92.683594 49.550781 C 90.417969 49.035156 89.808594 47.484375 87.496094 46.78125 C 86.363281 46.4375 80.648438 45.28125 80.226562 44.628906 C 80.132812 44.480469 80.144531 44.339844 80.183594 44.171875 C 80.226562 43.976562 80.386719 43.753906 80.578125 43.679688 C 81.328125 43.394531 86.332031 44.789062 87.296875 45.109375 C 87.960938 45.324219 88.605469 45.589844 89.222656 45.90625 C 90.011719 46.300781 91.359375 47.441406 92.054688 47.632812 C 92.1875 47.667969 92.136719 47.671875 92.246094 47.605469 C 92.21875 47.339844 92.183594 47.109375 92.058594 46.871094 C 91.6875 46.160156 90.410156 45.417969 89.644531 45.179688 C 88.417969 44.800781 87.257812 44.425781 85.996094 44.171875 C 84.824219 43.941406 83.558594 43.828125 82.414062 43.476562 C 82.050781 43.367188 81.808594 43.21875 81.519531 42.976562 C 82.695312 41.601562 94.53125 34.703125 96.730469 33.753906 Z M 112.699219 46.652344 C 110.988281 48.058594 109.296875 49.484375 107.523438 50.816406 C 106.730469 51.414062 105.933594 52.121094 105.023438 52.53125 C 105.003906 52.523438 104.984375 52.511719 104.964844 52.496094 C 104.210938 52.015625 103.621094 51.175781 102.949219 50.574219 C 100.71875 48.585938 97.675781 47.050781 94.625 47.683594 C 94.324219 47.746094 93.867188 47.832031 93.65625 48.058594 L 93.664062 48.105469 C 96.183594 48.890625 98.652344 50.058594 101.058594 51.144531 C 102.582031 51.832031 104.066406 52.523438 105.671875 53.007812 C 109.136719 50.359375 112.566406 47.648438 116.050781 45.023438 C 116.039062 44.714844 116.046875 44.402344 115.972656 44.101562 C 114.8125 44.855469 113.765625 45.773438 112.699219 46.652344 Z M 88.289062 39.402344 C 86.503906 40.453125 84.410156 41.578125 82.792969 42.855469 C 85.226562 43.339844 91.015625 44.03125 92.445312 46.195312 C 92.527344 46.320312 92.597656 46.453125 92.664062 46.585938 L 92.941406 47.222656 C 94.757812 45.363281 96.953125 44.058594 99.121094 42.652344 C 101.421875 41.164062 103.742188 39.710938 106.085938 38.289062 C 105.847656 37.621094 105.621094 37.339844 104.960938 37.027344 C 104.105469 36.625 97.546875 34.5 96.824219 34.507812 C 93.953125 36.101562 91.125 37.742188 88.289062 39.402344 Z M 103.546875 40.738281 C 101.636719 41.875 99.761719 43.066406 97.917969 44.3125 C 96.660156 45.152344 95.269531 45.972656 94.167969 47.019531 C 94.921875 46.894531 95.667969 46.769531 96.433594 46.777344 C 98.46875 46.792969 100.511719 47.828125 102.125 48.992188 C 103 49.625 103.789062 50.378906 104.542969 51.148438 L 105.050781 51.664062 C 105.863281 51.242188 106.597656 50.65625 107.324219 50.105469 C 109.296875 48.605469 111.144531 46.957031 113.070312 45.394531 C 113.71875 44.871094 114.351562 44.324219 115.007812 43.808594 C 115.480469 43.4375 116.027344 43.105469 116.429688 42.65625 C 115.453125 42.136719 114.523438 41.523438 113.542969 41.015625 C 111.777344 40.097656 108.578125 38.9375 106.59375 38.921875 C 105.550781 39.480469 104.554688 40.125 103.546875 40.738281 Z M 28.710938 0.113281 C 29.917969 0.0507812 31.101562 0.144531 32.289062 0.378906 C 34.800781 0.875 37.242188 2.082031 38.699219 4.265625 C 38.84375 4.484375 38.980469 4.710938 39.109375 4.941406 C 39.238281 5.171875 39.355469 5.40625 39.464844 5.648438 C 39.574219 5.886719 39.671875 6.132812 39.761719 6.378906 C 39.851562 6.628906 39.929688 6.878906 39.996094 7.136719 C 40.230469 8.039062 40.273438 8.96875 40.332031 9.898438 C 40.523438 12.878906 40.347656 15.726562 39.753906 18.660156 C 42.519531 19.15625 45.308594 19.433594 48.101562 19.738281 C 49.183594 19.859375 50.285156 19.933594 51.359375 20.101562 C 51.554688 20.132812 51.824219 20.183594 51.984375 20.308594 C 52.125 20.421875 52.113281 20.488281 52.117188 20.648438 C 52.054688 20.761719 52.019531 20.832031 51.910156 20.910156 C 51.800781 20.988281 51.664062 20.972656 51.535156 20.964844 C 50.332031 20.875 49.105469 20.667969 47.902344 20.535156 C 46.167969 20.339844 44.417969 20.195312 42.6875 19.964844 C 41.644531 19.828125 40.601562 19.632812 39.5625 19.457031 C 39.476562 19.929688 39.375 20.398438 39.25 20.859375 C 38.683594 23.066406 37.796875 25.707031 35.707031 26.917969 C 34.335938 27.707031 32.753906 27.636719 31.273438 27.253906 C 31.074219 28.101562 30.929688 28.941406 30.863281 29.8125 C 34.882812 31.390625 38.128906 33.625 40.429688 37.363281 L 40.46875 37.347656 C 40.421875 37.21875 40.371094 37.101562 40.402344 36.957031 C 40.488281 36.582031 50.265625 31.140625 51.363281 30.550781 C 51.757812 29.09375 51.867188 27.496094 52.140625 26.003906 C 52.578125 23.648438 53.132812 21.328125 53.613281 18.980469 C 54.121094 16.507812 54.582031 13.757812 55.398438 11.378906 C 55.488281 11.109375 55.640625 10.628906 55.898438 10.484375 C 56.011719 10.425781 56.167969 10.410156 56.292969 10.421875 C 57.527344 10.542969 58.773438 10.738281 60.007812 10.882812 C 67.15625 11.703125 74.277344 12.460938 81.363281 13.761719 C 82.65625 14 83.976562 14.183594 85.261719 14.472656 C 85.480469 14.523438 85.945312 14.632812 86.054688 14.859375 C 86.175781 15.105469 86.113281 15.460938 86.066406 15.722656 C 85.597656 18.472656 84.769531 21.136719 84.101562 23.839844 C 83.453125 26.445312 82.902344 29.085938 82.300781 31.703125 C 81.941406 33.257812 81.527344 34.796875 81.175781 36.351562 C 80.921875 37.46875 80.886719 38.664062 80.570312 39.761719 L 80.535156 39.875 C 80.480469 40.066406 80.382812 40.171875 80.242188 40.3125 C 79.285156 41.265625 78.152344 42.109375 77.121094 42.988281 L 72.117188 47.3125 C 70.789062 48.464844 69.449219 49.613281 68.136719 50.785156 C 67.5625 51.296875 66.273438 52.632812 65.652344 52.960938 C 65.09375 53.253906 63.605469 53.074219 62.90625 53.074219 C 61.609375 56.566406 59.71875 60.011719 57.480469 62.988281 C 56.699219 64.027344 55.839844 65.003906 54.992188 65.988281 C 54.089844 67.035156 53.1875 68.164062 52.046875 68.964844 C 51.234375 69.53125 50.097656 70.066406 49.085938 69.863281 C 44.648438 68.96875 37.414062 57.347656 34.773438 53.335938 C 34.441406 52.800781 33.589844 51.738281 33.722656 51.101562 C 33.835938 50.980469 33.847656 50.972656 34.003906 50.9375 C 34.308594 51.042969 34.410156 51.324219 34.566406 51.578125 C 35.621094 53.296875 36.78125 54.988281 37.914062 56.65625 C 40.363281 60.257812 42.75 63.789062 45.886719 66.839844 C 46.785156 67.710938 47.867188 68.792969 49.136719 69.070312 C 49.976562 69.253906 50.871094 68.8125 51.558594 68.359375 C 52.566406 67.691406 53.375 66.683594 54.164062 65.777344 C 55.21875 64.5625 56.285156 63.320312 57.226562 62.011719 C 59.230469 59.21875 60.777344 56.121094 62.167969 52.988281 C 62.789062 51.589844 63.476562 50.101562 63.78125 48.601562 C 62.617188 47.398438 59.691406 45.863281 58.054688 45.308594 C 55.238281 48.390625 52.6875 51.726562 49.9375 54.875 C 50.449219 55.414062 51.003906 55.917969 51.527344 56.445312 C 52.296875 57.222656 53.488281 58.777344 53.4375 59.929688 C 53.425781 60.121094 53.375 60.21875 53.230469 60.347656 L 53.054688 60.328125 C 52.925781 60.246094 52.820312 60.167969 52.746094 60.027344 C 52.648438 59.832031 52.617188 59.585938 52.546875 59.378906 C 52.390625 58.902344 52.085938 58.429688 51.789062 58.027344 C 51.171875 57.179688 50.367188 56.484375 49.648438 55.722656 C 49.007812 55.046875 48.449219 54.292969 47.933594 53.515625 C 46.78125 51.785156 46.03125 49.925781 45.15625 48.054688 C 44.101562 45.804688 42.949219 43.558594 41.789062 41.363281 C 38.523438 35.191406 35.882812 32.171875 29.066406 30.085938 C 26.390625 29.265625 19.105469 27.355469 16.65625 28.714844 C 12.71875 30.902344 8.957031 44.34375 7.851562 48.773438 C 7.570312 49.9375 7.300781 51.101562 7.042969 52.265625 C 6.929688 52.800781 6.886719 53.378906 6.730469 53.898438 C 6.644531 54.183594 6.558594 54.382812 6.289062 54.527344 L 6.148438 54.472656 C 5.996094 54.253906 5.972656 54.027344 5.988281 53.765625 C 6.019531 53.207031 6.191406 52.628906 6.304688 52.082031 C 6.589844 50.710938 6.902344 49.359375 7.261719 48.003906 C 8.566406 43.089844 11.726562 31.800781 15.46875 28.574219 C 16.710938 27.5 18.238281 27.351562 19.8125 27.46875 C 19.933594 27.113281 20.117188 26.789062 20.292969 26.457031 C 20.03125 26.300781 19.773438 26.140625 19.519531 25.972656 C 19.503906 24.230469 19.664062 22.480469 19.28125 20.761719 C 19.027344 19.621094 18.535156 18.570312 18.148438 17.476562 C 17.679688 16.140625 17.386719 14.640625 17.285156 13.230469 C 17.03125 9.777344 18.011719 6.316406 20.308594 3.679688 C 22.207031 1.5 25.898438 0.3125 28.710938 0.113281 Z M 51.957031 39.664062 L 52.855469 39.710938 C 52.984375 39.566406 53.121094 39.425781 53.265625 39.296875 C 53.410156 39.167969 53.5625 39.046875 53.722656 38.9375 C 53.5 38.875 53.265625 38.824219 53.054688 38.730469 C 52.683594 39.035156 52.304688 39.332031 51.957031 39.664062 Z M 69.84375 40.699219 C 70.105469 40.519531 70.371094 40.347656 70.621094 40.152344 C 70.84375 39.972656 71.070312 39.792969 71.28125 39.601562 C 70.84375 39.5 70.449219 39.421875 69.996094 39.433594 C 69.914062 39.859375 69.867188 40.269531 69.84375 40.699219 Z M 55.394531 36.917969 C 55.683594 37.011719 56.277344 37.285156 56.574219 37.175781 C 56.59375 37.167969 56.609375 37.15625 56.628906 37.144531 C 56.960938 36.929688 57.296875 36.71875 57.625 36.496094 C 57.179688 36.394531 56.691406 36.234375 56.238281 36.226562 C 55.953125 36.453125 55.660156 36.671875 55.394531 36.917969 Z M 53.613281 38.269531 C 53.875 38.355469 54.292969 38.570312 54.558594 38.460938 C 54.984375 38.199219 55.398438 37.941406 55.789062 37.632812 C 55.433594 37.523438 55.082031 37.402344 54.707031 37.371094 C 54.316406 37.652344 53.960938 37.9375 53.613281 38.269531 Z M 61.953125 36.953125 C 62.320312 37.027344 62.695312 37.121094 63.066406 37.164062 C 63.457031 36.816406 63.855469 36.5 64.28125 36.199219 C 63.929688 36.105469 63.578125 35.996094 63.214844 35.976562 C 62.796875 36.300781 62.390625 36.648438 61.953125 36.953125 Z M 66.082031 45.664062 C 66.402344 45.75 66.761719 45.902344 67.089844 45.792969 C 67.472656 45.480469 67.863281 45.171875 68.230469 44.839844 C 67.875 44.726562 67.519531 44.59375 67.152344 44.523438 C 66.769531 44.886719 66.414062 45.257812 66.082031 45.664062 Z M 60.128906 38.164062 C 60.6875 38.324219 61.246094 38.496094 61.816406 38.617188 L 62.648438 37.71875 C 62.113281 37.585938 61.566406 37.472656 61.035156 37.320312 C 60.734375 37.59375 60.402344 37.863281 60.128906 38.164062 Z M 67.65625 43.929688 C 68.003906 44.03125 68.761719 44.347656 69.070312 44.207031 C 69.4375 43.878906 69.816406 43.558594 70.148438 43.199219 C 69.617188 43.074219 69.0625 42.976562 68.539062 42.820312 C 68.246094 43.191406 67.941406 43.554688 67.65625 43.929688 Z M 56.269531 40.542969 C 56.917969 40.726562 57.570312 40.898438 58.214844 41.09375 C 58.351562 41.085938 58.335938 41.113281 58.433594 41 C 58.648438 40.753906 58.816406 40.453125 58.992188 40.179688 L 57.265625 39.742188 C 56.957031 40.050781 56.640625 40.300781 56.269531 40.542969 Z M 70.097656 38.8125 C 70.511719 38.90625 71.503906 39.214844 71.871094 39.070312 L 72.933594 38.285156 C 72.371094 38.070312 71.765625 37.945312 71.171875 37.828125 C 70.753906 38.117188 70.402344 38.398438 70.097656 38.8125 Z M 58.402344 39.378906 C 58.792969 39.488281 59.1875 39.589844 59.582031 39.691406 C 59.789062 39.578125 59.96875 39.472656 60.214844 39.535156 C 60.367188 39.574219 60.507812 39.652344 60.644531 39.726562 L 61.058594 40.042969 C 61.226562 39.777344 61.394531 39.515625 61.527344 39.226562 C 60.902344 39.019531 60.101562 38.65625 59.449219 38.601562 C 59.089844 38.851562 58.738281 39.101562 58.402344 39.378906 Z M 72.476562 39.339844 C 72.867188 39.453125 74.023438 39.886719 74.367188 39.8125 C 74.722656 39.515625 75.09375 39.226562 75.421875 38.898438 C 74.789062 38.753906 74.128906 38.640625 73.507812 38.464844 Z M 57.242188 37.335938 C 57.972656 37.546875 58.710938 37.742188 59.425781 37.996094 C 59.742188 37.9375 60.207031 37.472656 60.457031 37.253906 C 59.804688 37.023438 59.015625 36.925781 58.402344 36.625 C 58.011719 36.851562 57.613281 37.074219 57.242188 37.335938 Z M 56.890625 35.71875 C 57.34375 35.832031 58.125 36.121094 58.574219 36.039062 C 59.066406 35.777344 59.550781 35.515625 60.007812 35.195312 C 59.535156 35.011719 58.804688 34.667969 58.296875 34.703125 C 57.828125 35.035156 57.328125 35.351562 56.890625 35.71875 Z M 53.601562 39.769531 C 54.320312 40.011719 55.03125 40.265625 55.769531 40.453125 C 56.058594 40.175781 56.355469 39.90625 56.605469 39.589844 C 55.921875 39.386719 55.140625 39.101562 54.429688 39.042969 C 54.152344 39.285156 53.867188 39.519531 53.601562 39.769531 Z M 59.292969 36.226562 C 59.933594 36.414062 60.558594 36.621094 61.1875 36.832031 C 61.6875 36.527344 62.15625 36.183594 62.601562 35.804688 C 62.019531 35.65625 61.304688 35.402344 60.707031 35.40625 C 60.222656 35.664062 59.757812 35.933594 59.292969 36.226562 Z M 70.597656 40.777344 C 71.183594 40.960938 71.757812 41.148438 72.324219 41.390625 L 72.410156 41.363281 C 72.882812 40.988281 73.378906 40.625 73.816406 40.210938 C 73.234375 40.054688 72.523438 39.789062 71.917969 39.8125 C 71.457031 40.097656 70.992188 40.402344 70.597656 40.777344 Z M 68.886719 42.382812 C 69.34375 42.582031 70.242188 42.898438 70.730469 42.777344 C 71.160156 42.441406 71.589844 42.105469 72.003906 41.75 C 71.414062 41.597656 70.722656 41.277344 70.128906 41.207031 C 69.679688 41.566406 69.234375 41.917969 68.886719 42.382812 Z M 55.296875 38.558594 C 56.0625 38.941406 57.007812 38.988281 57.8125 39.296875 C 58.167969 39.039062 58.542969 38.789062 58.847656 38.46875 C 58.0625 38.144531 57.210938 37.964844 56.382812 37.761719 C 56.019531 38.023438 55.648438 38.28125 55.296875 38.558594 Z M 54.417969 41.859375 C 55.570312 42.222656 56.722656 42.519531 57.917969 42.71875 C 58.121094 42.542969 58.15625 42.054688 58.222656 41.785156 C 57.515625 41.574219 55.570312 40.917969 54.953125 40.90625 C 54.757812 41.214844 54.558594 41.523438 54.417969 41.859375 Z M 47.363281 44.011719 C 48.582031 44.339844 49.804688 44.65625 51.03125 44.957031 L 51.753906 45.09375 C 52.140625 44.589844 52.519531 44.074219 52.929688 43.585938 C 51.769531 43.328125 50.570312 43.078125 49.464844 42.628906 C 48.71875 43.019531 48.039062 43.503906 47.363281 44.011719 Z M 41.328125 38.902344 C 41.851562 39.878906 42.378906 40.84375 42.878906 41.832031 C 43.195312 42.457031 43.480469 43.164062 43.859375 43.75 L 45.542969 42.882812 C 45.21875 41.875 44.191406 38.765625 43.410156 38.28125 C 43.320312 38.226562 43.277344 38.226562 43.179688 38.238281 C 42.503906 38.355469 41.945312 38.605469 41.328125 38.902344 Z M 51.339844 42.503906 C 51.898438 42.621094 53.625 42.808594 53.949219 43.265625 C 53.832031 43.855469 52.46875 45.464844 51.96875 45.921875 C 51.144531 45.773438 46.820312 44.757812 46.351562 44.242188 C 46.347656 44.015625 46.445312 43.886719 46.601562 43.730469 C 46.890625 43.441406 47.253906 43.195312 47.578125 42.949219 C 47.269531 42.992188 46.902344 43.019531 46.605469 43.125 C 45.695312 43.457031 45.230469 44.074219 44.144531 44.351562 C 44.246094 44.574219 44.351562 44.800781 44.453125 45.023438 C 44.808594 45.125 45.15625 45.21875 45.515625 45.289062 C 47.558594 45.804688 49.621094 46.246094 51.671875 46.726562 C 52.800781 46.992188 53.957031 47.210938 55.042969 47.625 C 55.941406 46.53125 56.824219 45.359375 57.859375 44.386719 L 57.875 43.542969 C 56.964844 43.300781 53.101562 42.113281 52.386719 42.257812 Z M 49.386719 54.21875 C 50.085938 53.441406 50.773438 52.65625 51.449219 51.859375 C 52.265625 50.886719 53.109375 49.933594 53.910156 48.953125 C 53.007812 48.605469 52.054688 48.375 51.117188 48.128906 C 49.203125 47.625 47.277344 47.210938 45.355469 46.738281 C 46.628906 49.367188 47.65625 51.824219 49.386719 54.21875 Z M 45.582031 36.550781 C 45.097656 37.027344 44.675781 37.554688 44.203125 38.039062 C 45.125 39.242188 45.746094 40.921875 46.21875 42.359375 C 47.359375 42.230469 48.480469 42 49.609375 41.824219 C 50.777344 41.644531 52.941406 41.535156 53.914062 41.054688 C 54 40.917969 54.03125 40.886719 54.027344 40.726562 C 53.898438 40.542969 53.738281 40.5 53.523438 40.457031 C 52.679688 40.300781 51.398438 40.589844 50.671875 40.136719 C 50.625 40.046875 50.578125 40.011719 50.609375 39.90625 C 50.738281 39.480469 56.339844 35.074219 57.113281 34.511719 C 55.8125 35.082031 54.535156 35.703125 53.285156 36.375 C 52.777344 36.664062 51.429688 37.726562 50.949219 37.75 C 50.773438 37.671875 50.734375 37.605469 50.632812 37.449219 C 50.621094 37.289062 50.628906 37.214844 50.730469 37.082031 C 50.984375 36.761719 51.503906 36.542969 51.855469 36.316406 C 53.316406 35.378906 54.734375 34.445312 56.285156 33.65625 C 54.382812 34.089844 52.714844 34.875 51.054688 35.890625 C 50.628906 36.152344 50.242188 36.535156 49.800781 36.753906 C 49.589844 36.855469 49.378906 36.921875 49.152344 36.855469 C 49.085938 36.714844 49.09375 36.65625 49.15625 36.519531 C 49.648438 35.414062 53.183594 33.855469 54.394531 33.285156 C 52.386719 33.691406 50.691406 34.445312 48.953125 35.507812 C 48.660156 35.6875 48.007812 36.207031 47.652344 36.121094 C 47.527344 35.996094 47.519531 35.972656 47.484375 35.796875 C 47.695312 35.128906 49.847656 34.074219 50.542969 33.722656 C 50.851562 33.566406 51.179688 33.4375 51.496094 33.300781 L 51.5 33.265625 L 51.417969 33.269531 C 49.234375 33.574219 47.128906 35.039062 45.582031 36.550781 Z M 65.882812 37.171875 C 65.40625 37.855469 64.101562 40.546875 63.261719 40.515625 C 63.164062 40.390625 63.164062 40.316406 63.183594 40.164062 C 63.296875 39.375 64.800781 37.375 65.277344 36.628906 C 64.632812 36.9375 64.097656 37.230469 63.597656 37.738281 C 63.230469 38.117188 62.902344 38.527344 62.609375 38.964844 C 62.28125 39.453125 61.308594 41.457031 60.714844 41.328125 C 60.484375 41.050781 60.570312 40.265625 60.207031 40.210938 C 59.757812 40.386719 59.304688 41.050781 59.121094 41.476562 C 58.714844 42.417969 58.675781 43.625 58.679688 44.632812 C 60.339844 45.382812 61.886719 46.160156 63.332031 47.289062 C 63.703125 46.902344 64.066406 46.503906 64.449219 46.125 C 65.234375 45.347656 66.089844 44.589844 66.808594 43.753906 C 67.761719 42.652344 68.980469 40.617188 69.3125 39.207031 L 69.257812 39.257812 C 68.492188 39.988281 66.949219 42.261719 66.042969 42.476562 C 65.878906 42.433594 65.882812 42.433594 65.785156 42.292969 C 65.742188 42.035156 65.769531 41.921875 65.917969 41.714844 C 66.542969 40.855469 68.980469 38.644531 69.066406 37.78125 L 68.992188 37.691406 C 68.089844 37.816406 66.496094 40.027344 65.710938 40.554688 C 65.523438 40.679688 65.25 40.738281 65.035156 40.664062 C 64.960938 40.527344 64.949219 40.5 65.007812 40.339844 C 65.167969 39.914062 65.511719 39.492188 65.730469 39.089844 C 65.996094 38.609375 66.960938 36.753906 66.90625 36.308594 C 66.804688 36.226562 66.855469 36.25 66.757812 36.222656 C 66.421875 36.511719 66.136719 36.808594 65.882812 37.171875 Z M 47.921875 33.398438 C 45.738281 34.628906 43.53125 35.8125 41.367188 37.074219 C 42.261719 37.527344 42.730469 37.621094 43.726562 37.390625 C 45.789062 35.214844 48.492188 32.683594 51.671875 32.59375 C 52.109375 32.582031 52.515625 32.664062 52.9375 32.75 L 53.597656 32.429688 C 53.816406 32.496094 54.054688 32.578125 54.28125 32.597656 C 54.800781 32.636719 55.53125 32.277344 55.820312 32.851562 C 55.847656 32.910156 55.875 32.964844 55.902344 33.023438 C 56.332031 33.339844 57.285156 32.679688 57.433594 33.429688 C 57.453125 33.527344 57.4375 33.648438 57.433594 33.75 C 58.839844 34.144531 60.25 34.515625 61.667969 34.867188 C 63.019531 35.191406 64.523438 35.398438 65.792969 35.972656 C 66.105469 35.710938 66.488281 35.441406 66.917969 35.492188 C 67.160156 35.523438 67.421875 35.664062 67.566406 35.863281 C 67.65625 35.984375 67.726562 36.125 67.800781 36.257812 C 68.367188 36.5 68.953125 36.707031 69.546875 36.871094 C 70.683594 37.179688 75.765625 38.183594 76.339844 38.640625 C 76.386719 38.796875 76.394531 38.828125 76.320312 38.984375 C 76.148438 39.355469 70.5 43.890625 69.671875 44.59375 C 68.96875 45.164062 67.890625 46.214844 67.203125 46.644531 C 66.574219 46.554688 65.964844 46.394531 65.339844 46.300781 C 64.882812 46.769531 64.457031 47.265625 64.066406 47.792969 C 64.359375 48.074219 64.515625 48.277344 64.523438 48.695312 C 64.546875 49.5 64.039062 50.378906 63.777344 51.132812 C 64.1875 51.207031 64.597656 51.285156 65.007812 51.332031 C 68.144531 48.71875 71.164062 45.964844 74.257812 43.300781 C 75.363281 42.347656 76.496094 41.425781 77.59375 40.46875 C 78.050781 40.074219 78.574219 39.675781 78.960938 39.210938 L 79.085938 37.875 C 78.769531 37.96875 78.496094 38.074219 78.160156 38.015625 C 76.855469 37.800781 75.558594 37.359375 74.277344 37.03125 L 67.566406 35.300781 C 62.925781 34.101562 58.265625 32.980469 53.585938 31.9375 C 52.921875 31.78125 52.234375 31.398438 51.578125 31.3125 C 50.332031 31.960938 49.144531 32.710938 47.921875 33.398438 Z M 35.074219 15.902344 C 35.144531 16.113281 35.328125 16.519531 35.210938 16.730469 C 35.144531 16.84375 35.0625 16.886719 34.957031 16.953125 C 34.789062 16.957031 34.710938 16.949219 34.59375 16.824219 C 34.203125 16.417969 34.179688 15.789062 33.628906 15.523438 C 33.449219 15.507812 33.332031 15.539062 33.191406 15.652344 C 32.746094 16.007812 32.3125 16.765625 32.28125 17.328125 C 32.25 17.839844 32.476562 18.328125 32.820312 18.699219 C 33.089844 18.988281 33.566406 19.25 33.714844 19.609375 C 33.699219 19.757812 33.695312 19.816406 33.550781 19.898438 C 33.375 20 33.160156 19.957031 32.980469 19.882812 C 32.582031 19.714844 32.261719 19.421875 31.972656 19.109375 C 31.628906 19.933594 31.296875 20.785156 30.796875 21.535156 C 29.574219 23.359375 27.183594 25.03125 25.171875 25.855469 C 23.792969 26.417969 22.402344 26.820312 20.90625 26.785156 C 20.824219 26.996094 20.65625 27.289062 20.714844 27.515625 C 20.832031 27.597656 20.917969 27.601562 21.058594 27.609375 C 24.214844 28.019531 27.039062 28.550781 30.054688 29.601562 C 30.160156 28.652344 30.679688 25.367188 31.378906 24.8125 C 31.457031 24.753906 31.515625 24.769531 31.605469 24.765625 C 31.785156 24.90625 31.851562 25.007812 31.867188 25.238281 C 31.894531 25.613281 31.65625 26.199219 31.570312 26.578125 C 32.976562 26.742188 34.5 26.886719 35.6875 25.964844 C 38.207031 24.003906 39.027344 18.523438 39.382812 15.480469 C 39.484375 14.59375 39.851562 12.484375 39.609375 11.691406 C 38.289062 13.566406 37.132812 14.796875 35.074219 15.902344 Z M 54.175781 24.476562 C 53.789062 26.292969 53.507812 28.152344 53.035156 29.945312 C 57.738281 31.28125 62.492188 32.359375 67.21875 33.582031 C 69.589844 34.191406 71.925781 34.878906 74.273438 35.570312 C 75.917969 36.054688 77.675781 36.34375 79.273438 36.957031 L 79.441406 36.035156 C 80.648438 31.105469 81.992188 26.203125 83.15625 21.261719 C 83.558594 19.566406 83.898438 17.847656 84.265625 16.144531 C 82.722656 15.828125 81.15625 15.613281 79.605469 15.347656 C 75.507812 14.621094 71.390625 14 67.261719 13.492188 C 65.226562 13.222656 63.191406 13.003906 61.15625 12.765625 C 59.753906 12.605469 58.300781 12.378906 56.890625 12.34375 C 55.925781 16.375 55.019531 20.417969 54.175781 24.476562 Z M 54.175781 24.476562 " fill-opacity="1" fill-rule="nonzero"/></g></svg>