<svg xmlns="http://www.w3.org/2000/svg" xmlns:xlink="http://www.w3.org/1999/xlink" width="215" zoomAndPan="magnify" viewBox="0 0 161.25 62.249996" height="83" preserveAspectRatio="xMidYMid meet" version="1.2"><defs><clipPath id="956f73d2e7"><path d="M 1 17.542969 L 44.3125 17.542969 L 44.3125 40.515625 L 1 40.515625 Z M 1 17.542969 "/></clipPath></defs><g id="c21591efa2"><g style="fill:#303144;fill-opacity:1;"><g transform="translate(58.723388, 40.915372)"><path style="stroke:none" d="M 6.953125 5.75 L 6.953125 -16.78125 C 6.953125 -17.226562 6.875 -17.523438 6.71875 -17.671875 C 6.570312 -17.828125 6.269531 -17.90625 5.8125 -17.90625 L 0.53125 -17.90625 L 0.53125 -22.53125 L 9.234375 -22.53125 C 10.515625 -22.53125 11.421875 -22.234375 11.953125 -21.640625 C 12.492188 -21.054688 12.765625 -20.050781 12.765625 -18.625 L 12.765625 5.75 Z M 6.953125 5.75 "/></g></g><g style="fill:#303144;fill-opacity:1;"><g transform="translate(73.592925, 40.915372)"><path style="stroke:none" d="M 16.96875 -22.53125 L 22.609375 -22.53125 L 21.515625 -8 C 21.316406 -5.113281 20.570312 -3.054688 19.28125 -1.828125 C 17.988281 -0.609375 15.96875 0 13.21875 0 L 5.703125 0 C 4.734375 0 4.023438 -0.25 3.578125 -0.75 C 3.140625 -1.25 2.859375 -1.953125 2.734375 -2.859375 L 2.109375 -7.65625 C 1.898438 -8.882812 2.234375 -9.820312 3.109375 -10.46875 L 1.28125 -22.53125 L 6.953125 -22.53125 L 8.484375 -12.359375 L 8.515625 -12.359375 C 8.867188 -12.484375 9.085938 -12.617188 9.171875 -12.765625 C 9.265625 -12.910156 9.3125 -13.1875 9.3125 -13.59375 L 9.3125 -22.53125 L 14.90625 -22.53125 L 14.90625 -12.46875 C 14.90625 -11.363281 14.726562 -10.566406 14.375 -10.078125 C 14.03125 -9.585938 13.46875 -9.207031 12.6875 -8.9375 L 8.640625 -7.546875 C 8.210938 -7.367188 7.953125 -7.210938 7.859375 -7.078125 C 7.773438 -6.941406 7.757812 -6.671875 7.8125 -6.265625 L 7.953125 -5.296875 C 8.003906 -4.972656 8.125 -4.765625 8.3125 -4.671875 C 8.5 -4.585938 8.78125 -4.546875 9.15625 -4.546875 L 11.671875 -4.546875 C 12.722656 -4.546875 13.539062 -4.640625 14.125 -4.828125 C 14.71875 -5.015625 15.144531 -5.382812 15.40625 -5.9375 C 15.675781 -6.488281 15.847656 -7.285156 15.921875 -8.328125 Z M 16.96875 -22.53125 "/></g></g><g style="fill:#303144;fill-opacity:1;"><g transform="translate(97.511855, 40.915372)"><path style="stroke:none" d="M 18.0625 -3.1875 C 18.113281 -2.09375 17.878906 -1.285156 17.359375 -0.765625 C 16.847656 -0.253906 16.003906 0 14.828125 0 L 9.3125 0 L 9.3125 -4.625 L 11.1875 -4.625 C 11.59375 -4.625 11.84375 -4.703125 11.9375 -4.859375 C 12.039062 -5.023438 12.078125 -5.296875 12.046875 -5.671875 L 11.484375 -16.0625 C 11.460938 -16.789062 11.367188 -17.304688 11.203125 -17.609375 C 11.046875 -17.910156 10.753906 -18.0625 10.328125 -18.0625 L 10.171875 -18.0625 C 9.847656 -18.0625 9.617188 -17.96875 9.484375 -17.78125 C 9.347656 -17.59375 9.238281 -17.210938 9.15625 -16.640625 L 6.953125 0 L 1.015625 0 L 3.109375 -14.453125 C 3.335938 -16.035156 3.78125 -17.1875 4.4375 -17.90625 L 1.65625 -17.90625 L 1.65625 -22.53125 L 12.359375 -22.53125 C 13.785156 -22.53125 14.9375 -22.140625 15.8125 -21.359375 C 16.6875 -20.585938 17.171875 -19.125 17.265625 -16.96875 Z M 18.0625 -3.1875 "/></g></g><g style="fill:#303144;fill-opacity:1;"><g transform="translate(116.924863, 40.915372)"><path style="stroke:none" d="M 11.796875 0 L 11.796875 -16.78125 C 11.796875 -17.226562 11.710938 -17.523438 11.546875 -17.671875 C 11.378906 -17.828125 11.070312 -17.90625 10.625 -17.90625 L 1.953125 -17.90625 L 1.953125 -22.53125 L 14.1875 -22.53125 C 15.4375 -22.53125 16.316406 -22.234375 16.828125 -21.640625 C 17.347656 -21.054688 17.609375 -20.050781 17.609375 -18.625 L 17.609375 0 Z M 3.875 0 C 2.59375 0 1.953125 -0.648438 1.953125 -1.953125 L 1.953125 -14.046875 L 7.765625 -14.046875 L 7.765625 -5.328125 C 7.765625 -4.859375 7.953125 -4.625 8.328125 -4.625 L 8.828125 -4.625 L 8.828125 0 Z M 3.875 0 "/></g></g><g clip-rule="nonzero" clip-path="url(#956f73d2e7)"><path style=" stroke:none;fill-rule:nonzero;fill:#303144;fill-opacity:1;" d="M 44.441406 17.542969 L 44.441406 23.304688 L 37.027344 29.042969 L 44.441406 34.757812 L 44.441406 40.515625 L 29.589844 29.019531 Z M 30.320312 17.542969 L 30.320312 23.304688 L 22.90625 29.042969 L 30.320312 34.757812 L 30.320312 40.515625 L 15.46875 29.019531 Z M 16.203125 17.542969 L 16.203125 23.304688 L 8.789062 29.042969 L 16.203125 34.757812 L 16.203125 40.515625 L 1.351562 29.019531 Z M 16.203125 17.542969 "/></g></g></svg>